<?xml version="1.0"?>
<svg xmlns="http://www.w3.org/2000/svg" id="Layer_1" data-name="Layer 1" viewBox="0 0 302 302">
  <defs>
    <style>.cls-1{fill:#572fa3;}</style>
  </defs>
  <path class="cls-1" d="M143.64,173.35a17.58,17.58,0,1,1-17.57,17.57A17.59,17.59,0,0,1,143.64,173.35Zm0,43.93c-19.38,0-35.15,16.3-35.15,36.35v12a4.4,4.4,0,0,0,4.4,4.39h61.5a4.39,4.39,0,0,0,4.39-4.39v-12C178.78,233.58,163,217.28,143.64,217.28Zm79.08-43.93a17.58,17.58,0,1,0,17.57,17.57A17.6,17.6,0,0,0,222.72,173.35Zm0,43.93c-19.38,0-35.15,16.3-35.15,36.35v12A4.4,4.4,0,0,0,192,270h61.51a4.39,4.39,0,0,0,4.39-4.39v-12C257.86,233.58,242.1,217.28,222.72,217.28ZM64.56,208.5A17.58,17.58,0,1,0,47,190.92,17.6,17.6,0,0,0,64.56,208.5Zm0,8.78c-19.38,0-35.14,16.3-35.14,36.35v12A4.39,4.39,0,0,0,33.81,270h61.5a4.4,4.4,0,0,0,4.4-4.39v-12C99.71,233.58,83.94,217.28,64.56,217.28Zm96.65-83.47H73.35V66.43h87.86ZM130.46,98.66a4.38,4.38,0,0,0-1.76-3.51L111.13,82a4.39,4.39,0,0,0-7,3.52v26.35a4.41,4.41,0,0,0,2.43,3.94,4.54,4.54,0,0,0,2,.46,4.41,4.41,0,0,0,2.64-.88l17.57-13.18A4.39,4.39,0,0,0,130.46,98.66Zm-17.57,4.4,5.85-4.4-5.85-4.39ZM47,151.38v-101a8.8,8.8,0,0,1,8.79-8.79H231.5a8.8,8.8,0,0,1,8.79,8.79v101a8.8,8.8,0,0,1-8.79,8.79H55.78A8.8,8.8,0,0,1,47,151.38ZM178.78,83.29a6.6,6.6,0,0,0,6.59,6.59h30.76a6.6,6.6,0,0,0,6.59-6.59V65.72a6.6,6.6,0,0,0-6.59-6.59H185.37a6.6,6.6,0,0,0-6.59,6.59Zm0,22a2.21,2.21,0,0,0,2.2,2.2h39.54a2.21,2.21,0,0,0,2.2-2.2v-4.39a2.21,2.21,0,0,0-2.2-2.2H181a2.21,2.21,0,0,0-2.2,2.2Zm0,17.58A2.2,2.2,0,0,0,181,125h39.54a2.2,2.2,0,0,0,2.2-2.19v-4.4a2.2,2.2,0,0,0-2.2-2.19H181a2.2,2.2,0,0,0-2.2,2.19Zm0,17.57a2.21,2.21,0,0,0,2.2,2.2h39.54a2.21,2.21,0,0,0,2.2-2.2V136a2.21,2.21,0,0,0-2.2-2.2H181a2.21,2.21,0,0,0-2.2,2.2ZM64.56,136a6.6,6.6,0,0,0,6.59,6.59h92.26A6.6,6.6,0,0,0,170,136V64.23a6.6,6.6,0,0,0-6.59-6.59H71.15a6.6,6.6,0,0,0-6.59,6.59Zm149.37-68.1H187.57V81.09h26.36Z"/>
</svg>
