<?xml version="1.0"?>
<svg xmlns="http://www.w3.org/2000/svg" id="Layer_1" data-name="Layer 1" viewBox="0 0 302 302">
  <defs>
    <style>.cls-1,.cls-2,.cls-3,.cls-4{fill:none;stroke-linecap:round;stroke-linejoin:round;stroke-width:3px;}.cls-1{stroke:#b8b9f1;}.cls-2{stroke:#fa4675;}.cls-3{stroke:#6556c5;}.cls-4{stroke:#572fa3;}</style>
  </defs>
  <path class="cls-1" d="M75.24,158.19,84,153.12S83,158.36,83,158.36s.87-.51.87-.5"/>
  <path class="cls-1" d="M89.88,92.64s19.85-11.53,19.88-11.47-33.94,24.1-33.9,24.17,40.59-23.5,40.62-23.45-45.64,30.39-45.56,30.53,46.88-27.4,47-27.15c.26.44-46.14,30.47-46,30.69s45.66-26.62,45.78-26.43-45.43,31.16-45.36,31.29,27-15.79,27.07-15.63S72.79,125.06,72.81,125.1c.16.27,27.14-15.76,27.18-15.69.14.23-28.74,20.79-28.61,21s23.88-13.91,23.94-13.82S54.2,144.14,54.37,144.45s36.32-21.35,36.48-21.06-37,25.92-36.91,26,33.73-19.51,33.75-19.48S52.78,154,52.83,154.1s32.9-19,32.92-19S52.86,158.25,53,158.55s31.9-18.7,32-18.48S52.29,163.25,52.44,163.5s32.54-19,32.63-18.84S51.6,168.07,51.74,168.32,83.37,149.74,83.51,150s-31.37,22.6-31.28,22.75,13.32-7.82,13.38-7.73S51.91,177.59,52,177.7s11.92-6.92,11.94-6.89-11.65,11.73-11.64,11.75L64,175.77c0,.07-10.09,10.52-10,10.61s10.65-6.18,10.67-6.16S54,190.51,54.08,190.63s11.7-6.84,11.74-6.78-9.59,9.68-9.59,9.69,9.6-5.66,9.65-5.57S55.94,198.72,56,198.8s12.39-7.16,12.39-7.15-9.32,10.48-9.29,10.53,9.26-5.43,9.3-5.37-8.49,9.59-8.47,9.63,10-5.8,10-5.76-8.68,9.1-8.65,9.14,11-6.52,11.11-6.42-9.22,9.86-9.16,10,9.9-5.73,9.91-5.72-8.5,9.19-8.48,9.22,11.28-6.6,11.31-6.53-7.68,9-7.64,9.06,8.62-5,8.64-5"/>
  <path class="cls-1" d="M43,113.58s8.71-5.08,8.73-5-11,10.64-11,10.68,17.8-10.41,17.86-10.31-18.52,14.69-18.46,14.8,21.12-12.26,21.15-12.21S41.35,127.8,41.46,128c0,0,23.47-13.83,23.59-13.62s-22.29,17.05-22.24,17.14,23.66-13.91,23.77-13.73-20.06,16.65-20,16.68c.11.21,22.22-12.84,22.23-12.83S51,136,51.1,136.16s15.69-9.23,15.76-9.1"/>
  <path class="cls-2" d="M80,228.28s8.1-4.75,8.13-4.69S77,235,77,235s19.58-11.4,19.62-11.33-18.72,15-18.69,15.06,21.43-12.54,21.5-12.41-20.79,16-20.73,16.15,24.32-14.31,24.43-14.11S81.39,245.6,81.4,245.62s22.69-13.31,22.78-13.16-19.86,16.29-19.81,16.38S105,236.77,105.06,236.9s-17.59,14.15-17.54,14.23,17.9-10.55,18-10.38"/>
  <path class="cls-2" d="M70.19,167.29s5.44-3.2,5.47-3.16-6.13,8.23-6.12,8.24,11-6.47,11.06-6.39-10.84,10.37-10.81,10.43,12.47-7.23,12.48-7.2S71,180.65,71.1,180.77s11.33-6.58,11.35-6.55S70.94,185.91,71,185.93s12.47-7.32,12.52-7.23S72.94,189.06,73,189.12s10.06-5.87,10.09-5.83S73.3,193.91,73.34,194s11.41-6.64,11.43-6.59S74.93,198,74.94,198s18.21-10.69,18.29-10.55S77.63,201,77.66,201,94.91,190.92,95,191s-16.38,13.37-16.31,13.5,18-10.41,18-10.39S81,207.55,81.06,207.72s18.61-10.9,18.67-10.78S82.79,210.7,82.88,210.86s18.8-11,18.87-10.9-17.14,14.1-17.07,14.22,18.84-11.12,18.95-10.94c0,0-17.13,14.38-17.09,14.45s21.53-12.44,21.53-12.43S93,217.86,93.09,218s17.63-10.23,17.65-10.19-12.57,11.3-12.52,11.38,15.24-8.94,15.3-8.83-11.94,11-11.89,11.06,15.42-9.09,15.5-8.95-12.9,11.53-12.82,11.67,16.49-9.59,16.52-9.53-14,12.51-14,12.61,17.59-10.19,17.6-10.17-16,14-16,14.07,21.66-12.62,21.71-12.54-19.79,15.66-19.77,15.68,25.17-14.82,25.3-14.61c0,0-25.56,19.13-25.5,19.23s22.17-12.81,22.17-12.8-20,16.1-19.91,16.28,20-11.68,20.06-11.58-15.86,14-15.76,14.13c0,0,15.95-9.38,16-9.25S121,246.89,121,247s14.75-8.59,14.78-8.53S124.35,249.92,124.38,250s15.14-8.83,15.18-8.76-9.79,10.28-9.76,10.33,13.83-8,13.83-8-8.12,9.66-8.07,9.73,14.57-8.61,14.66-8.46-9.1,9.66-9,9.76,15.86-9.29,15.92-9.2-11.27,11-11.23,11.12,19.3-11.26,19.35-11.17-13.47,12.42-13.43,12.49,22.28-13,22.35-12.9-15.49,13.2-15.42,13.31,25.21-14.82,25.33-14.62c0,0-17,14.66-17,14.69.11.2,21.29-12.45,21.36-12.33s-13.09,11.51-13,11.61,13.3-7.76,13.33-7.7"/>
  <path class="cls-3" d="M104.29,77.89c.08.14,31.05-18,31.09-18S116,75.81,116.07,76,137.7,63.25,137.8,63.42s-16.19,14.43-16.17,14.46S140.42,66.79,140.52,67,124,81.37,124,81.39s21-12.17,21-12.13c.12.2-19.87,16.33-19.83,16.41s26.4-15.53,26.52-15.31-25,18.57-24.86,18.8,42.2-24.87,42.42-24.49-32.89,23.2-32.76,23.41c0,0,37-21.63,37.14-21.44s-27.56,19.92-27.51,20c.16.26,31.69-18.68,31.86-18.39,0,.06-23.24,17.82-23.15,18s27.67-16.12,27.73-16S161.57,87,161.58,87c.13.22,24-14.08,24.07-13.9S168.53,87.79,168.53,87.8c.11.19,20.73-12,20.75-12s-15,13.73-15,13.81,20.26-11.84,20.33-11.73S179.18,91,179.23,91.06s17.31-10,17.32-10-7,8.46-7,8.49S200.93,83,201,83s-10,9.78-10,9.87,12.07-7.11,12.13-7-7.65,9.26-7.63,9.29,10.59-6.21,10.63-6.14S197,98.49,197,98.51s11.24-6.63,11.3-6.52-7.5,9.17-7.47,9.22,10-5.81,10-5.79"/>
  <path class="cls-3" d="M79.15,78.18c.07.12,19.85-11.57,19.9-11.49S66.27,89.83,66.45,90.14c0,0,51-29.62,51.1-29.5.18.31-53.44,35.59-53.31,35.81s63.42-37.14,63.65-36.74c.11.18-61.5,39.76-61.32,40.08,0,0,18.42-10.78,18.48-10.67"/>
  <path class="cls-3" d="M142.28,41.71c0,.06,7.26-4.25,7.28-4.21S137.9,48.61,137.91,48.62s19-11.12,19-11-19.39,16-19.31,16.11,23.52-13.67,23.56-13.6-21.72,16.7-21.6,16.92S162.82,43.32,163,43.56s-22,17-21.9,17.16,24.59-14.26,24.62-14.21S144.35,63,144.48,63.17s21.21-12.4,21.27-12.28-16.61,13.48-16.51,13.66,15.51-9,15.54-9"/>
  <path class="cls-4" d="M200.49,228.27c0,.07,8.76-5.12,8.78-5.07s-10.59,10.63-10.53,10.73,18.08-10.51,18.11-10.46-19.11,15.18-19.06,15.26,22.82-13.18,22.83-13.18S199.09,242,199.17,242.11s23.88-14.05,24-13.85-22.62,17.5-22.49,17.73,23.95-14,24-13.86S203.91,248.59,204,248.76s21.29-12.5,21.38-12.35-17.11,14-17.09,14,16.44-9.52,16.45-9.5-9.45,9.43-9.4,9.53,7.18-4.14,7.18-4.14"/>
  <path class="cls-4" d="M208.27,191.63s.57-.34.57-.33-7.3,8.51-7.25,8.6,11.24-6.59,11.28-6.52"/>
  <path class="cls-4" d="M166.13,220.89s1.46-.87,1.47-.85"/>
  <path class="cls-4" d="M207.35,218.71c.08.14,34.78-20.09,34.79-20.08s-25.1,19.5-25.08,19.54,18.05-10.57,18.11-10.45-14.55,12.74-14.55,12.75,5.35-3.1,5.36-3.09"/>
  <path class="cls-4" d="M139.2,227.91s4.54-2.63,4.55-2.62-6.18,8.36-6.17,8.38,11.86-6.84,11.86-6.84-9.54,10.55-9.52,10.58,17.39-10.22,17.47-10.08-12.23,11.44-12.21,11.47c.22.37,72.39-42.26,72.59-41.92s-64.44,42-64.36,42.17,98.37-56.89,98.41-56.81c.29.5-92.78,57.07-92.29,57.92s88.63-52.34,89.13-51.47c.16.27-81.27,50.52-80.85,51.25.27.46,75.85-44.47,76.14-44,.06.1-66,42.76-65.85,43S195,229.12,195,229.19s-5.92,7.75-5.9,7.79,4.4-2.58,4.42-2.55"/>
  <path class="cls-4" d="M247.08,150.39s4.59-2.67,4.6-2.65-5.3,7.59-5.28,7.62,10.24-6,10.27-5.93-11.22,11.39-11.18,11.46,12.9-7.54,12.94-7.47-15,12.74-15,12.84,14.11-8.31,14.19-8.19-15.95,13.34-15.92,13.4,15.44-9,15.46-8.92-17.51,15-17.4,15.24,16.35-9.61,16.42-9.48-18.83,15.24-18.82,15.25,17.27-10,17.27-10-21.6,16.95-21.51,17.11,19.92-11.57,20-11.51"/>
  <path class="cls-1" d="M238.52,113.36s8-4.69,8-4.64-11.4,10.83-11.32,11,18.2-10.7,18.28-10.56-19,15.45-19,15.52,22.61-13.33,22.73-13.12c0,0-20,16.41-20,16.43s23.11-13.65,23.24-13.42c0,0-21.66,17.41-21.57,17.57s24-14,24.09-13.91-19.89,16.14-19.88,16.16,20.45-11.94,20.51-11.84-17.32,14.19-17.26,14.29,15.93-9.38,16-9.24"/>
  <path class="cls-1" d="M177.86,54.53s3.62-2.15,3.64-2.1-4.68,6.87-4.68,6.88,10.39-6,10.4-6-8.39,9.24-8.36,9.3S192,54.92,192.06,55,181.94,65.42,182,65.48s13-7.54,13-7.49-8,8.86-8,8.94,11.6-6.81,11.65-6.73S191,68.66,191,68.67s11.28-6.56,11.3-6.52S193,71.59,193,71.67s12.85-7.46,12.87-7.43S197,74,197,74s11.26-6.51,11.26-6.5-7.72,9.32-7.72,9.33,11.54-6.76,11.58-6.69-8.32,9.86-8.27,9.94,11.75-6.87,11.79-6.81-8,9.17-8,9.25,10.42-6.07,10.44-6-7.67,8.55-7.61,8.65,10.77-6.36,10.83-6.26-8.9,10.23-8.89,10.26,10.77-6.3,10.8-6.24-9.72,9.77-9.68,9.85,11.72-6.88,11.77-6.8-11.13,11.33-11.09,11.39,13.92-8.06,13.93-8c.1.18-15.26,13.42-15.18,13.55s16.77-9.77,16.81-9.71S206,111.77,206,111.78s25.78-14.94,25.81-14.9c.12.22-24.63,18.89-24.57,19s26.17-15.32,26.27-15.16-22.72,18-22.58,18.23,24.6-14.45,24.71-14.27S211.08,122.74,211.21,123c0,0,25.95-15.24,26.06-15s-24.18,18-24,18.27c0,.06,18.87-11,18.91-10.92S214.92,129.15,215,129.3s14.69-8.63,14.75-8.51S215.58,133,215.64,133.08s14.36-8.39,14.4-8.32-13,11.46-13,11.56,14.2-8.24,14.22-8.21-13.69,12.39-13.6,12.54,15.83-9.25,15.88-9.17S219,144,219.05,144.08s16.44-9.6,16.49-9.52-16.33,13.76-16.32,13.78,19.31-11.36,19.39-11.2-18.36,15.49-18.26,15.65,21.2-12.26,21.2-12.25-22.21,17.31-22.17,17.38S242,144.76,242,144.85s-21.43,17-21.31,17.2,20.32-11.94,20.41-11.78-16.84,13.91-16.76,14,16-9.47,16.13-9.32S224,168.55,224.11,168.72s16.21-9.5,16.28-9.39-18.06,14.34-17.94,14.53,16.84-9.93,16.93-9.77c0,0-20.84,16.9-20.79,17s17.62-10.19,17.63-10.18-18.76,15.23-18.66,15.4,16.61-9.66,16.64-9.6-16.46,13.68-16.39,13.8,13.2-7.63,13.21-7.62-8.66,9.39-8.66,9.4,6-3.53,6-3.48"/>
</svg>
