<?xml version="1.0" encoding="utf-8"?>
<!-- Generator: Adobe Illustrator 19.0.0, SVG Export Plug-In . SVG Version: 6.00 Build 0)  -->
<svg version="1.1" id="Layer_1" xmlns="http://www.w3.org/2000/svg" xmlns:xlink="http://www.w3.org/1999/xlink" x="0px" y="0px"
	 viewBox="0 0 162 146.9" style="enable-background:new 0 0 162 146.9;" xml:space="preserve">
<style type="text/css">
	.st0{fill:#F4F6FF;}
</style>
<g id="XMLID_1116_">
	<g id="XMLID_1117_">
		<path id="XMLID_1126_" class="st0" d="M82,15.5c18.8,0,21,0.1,28.4,0.4c6.9,0.3,10.6,1.5,13.1,2.4c3.3,1.3,5.6,2.8,8.1,5.3
			c2.5,2.5,4,4.8,5.3,8.1c1,2.5,2.1,6.2,2.4,13.1c0.3,7.4,0.4,9.6,0.4,28.4c0,18.8-0.1,21-0.4,28.4c-0.3,6.9-1.5,10.6-2.4,13.1
			c-1.3,3.3-2.8,5.6-5.3,8.1c-2.5,2.5-4.8,4-8.1,5.3c-2.5,1-6.2,2.1-13.1,2.4c-7.4,0.3-9.6,0.4-28.4,0.4c-18.8,0-21-0.1-28.4-0.4
			c-6.9-0.3-10.6-1.5-13.1-2.4c-3.3-1.3-5.6-2.8-8.1-5.3c-2.5-2.5-4-4.8-5.3-8.1c-1-2.5-2.1-6.2-2.4-13.1c-0.3-7.4-0.4-9.6-0.4-28.4
			c0-18.8,0.1-21,0.4-28.4c0.3-6.9,1.5-10.6,2.4-13.1c1.3-3.3,2.8-5.6,5.3-8.1c2.5-2.5,4.8-4,8.1-5.3c2.5-1,6.2-2.1,13.1-2.4
			C61,15.5,63.2,15.5,82,15.5 M82,2.8c-19.1,0-21.5,0.1-29,0.4C45.5,3.6,40.4,4.8,36,6.5c-4.6,1.8-8.5,4.2-12.5,8.1
			c-3.9,3.9-6.3,7.8-8.1,12.5c-1.7,4.5-2.9,9.6-3.3,17.1c-0.3,7.5-0.4,9.9-0.4,29c0,19.1,0.1,21.5,0.4,29c0.3,7.5,1.5,12.6,3.3,17.1
			c1.8,4.6,4.2,8.5,8.1,12.5c3.9,3.9,7.8,6.3,12.5,8.1c4.5,1.7,9.6,2.9,17.1,3.3c7.5,0.3,9.9,0.4,29,0.4s21.5-0.1,29-0.4
			c7.5-0.3,12.6-1.5,17.1-3.3c4.6-1.8,8.5-4.2,12.5-8.1c3.9-3.9,6.3-7.8,8.1-12.5c1.7-4.5,2.9-9.6,3.3-17.1c0.3-7.5,0.4-9.9,0.4-29
			c0-19.1-0.1-21.5-0.4-29c-0.3-7.5-1.5-12.6-3.3-17.1c-1.8-4.6-4.2-8.5-8.1-12.5c-3.9-3.9-7.8-6.3-12.5-8.1
			c-4.5-1.7-9.6-2.9-17.1-3.3C103.5,2.9,101.1,2.8,82,2.8"/>
		<path id="XMLID_1123_" class="st0" d="M82,37c-19.9,0-36.1,16.2-36.1,36.1s16.2,36.1,36.1,36.1c19.9,0,36.1-16.2,36.1-36.1
			S102,37,82,37 M82,96.6c-12.9,0-23.4-10.5-23.4-23.4c0-12.9,10.5-23.4,23.4-23.4c12.9,0,23.4,10.5,23.4,23.4
			C105.4,86.1,95,96.6,82,96.6"/>
		<path id="XMLID_960_" class="st0" d="M128,35.6c0,4.7-3.8,8.4-8.4,8.4c-4.7,0-8.4-3.8-8.4-8.4c0-4.7,3.8-8.4,8.4-8.4
			C124.2,27.1,128,30.9,128,35.6"/>
	</g>
</g>
</svg>
