<?xml version="1.0"?>
<svg xmlns="http://www.w3.org/2000/svg" id="Layer_1" data-name="Layer 1" viewBox="0 0 688 193">
  <defs>
    <style>.cls-1{fill:none;stroke:#572fa3;stroke-linecap:round;stroke-linejoin:round;stroke-width:3px;}</style>
  </defs>
  <path class="cls-1" d="M77.2,87c.06.1,40.7-23.94,40.89-23.6S80.69,88.79,80.82,89,125.3,63.19,125.36,63.3c.24.41-39.84,27.93-39.79,28,.17.29,47.79-28.06,48-27.71,0,.06-44.77,30.16-44.74,30.21.28.49,52.14-30.66,52.38-30.24S91.4,96,91.56,96.31s57-33.53,57.27-33.06-53,34.42-52.68,35,59.23-34.91,59.54-34.38c.21.36-55.83,36.22-55.64,36.56s58-34.23,58.32-33.67-54.87,36.2-54.87,36.21c.32.55,58.33-33.95,58.44-33.75.33.56-56.45,36.68-56.36,36.84.2.34,57.45-33.33,57.52-33.21s-59.57,39.28-59.51,39.38,60.56-35.53,60.8-35.1"/>
  <path class="cls-1" d="M29.63,145c.08.15,40.49-23.89,40.72-23.51.05.09-31.59,22.89-31.45,23.13s32.62-19.14,32.75-18.91-25,19.22-24.92,19.34S77,127.49,77,127.61s-22.85,17.18-22.78,17.31c.35.6,110.41-64,110.53-63.82.5.85-103.88,63.52-103.5,64.18S163.08,86.5,163.09,86.5C163.38,87,70.58,145,70.6,145c.44.76,93.08-54.65,93.47-54S77.76,144.23,78.15,144.9c.2.34,85.36-49.67,85.52-49.38.06.09-78.59,49.23-78.41,49.54s78.83-45.73,78.93-45.57c.3.53-71.58,45.05-71.44,45.29.27.48,71.38-41.76,71.62-41.35.1.18-64.78,41.45-64.6,41.75s63.74-37.53,64.05-37c.2.34-55.55,36.12-55.38,36.4.29.51,54.64-32,54.84-31.66,0,0-48.09,32.08-47.94,32.34s48-27.86,48-27.73S123.89,145,123.94,145c.16.29,40-23.16,40-23.1s-33,23.11-32.87,23.42,32-18.53,32-18.49c.12.21-23.08,17.91-23.08,17.93s23.42-13.56,23.43-13.53-15.09,13.63-15.05,13.7S164,135.9,164,136s-9.78,10.77-9.78,10.77,9.08-5.33,9.12-5.26"/>
  <path class="cls-1" d="M14.36,67.4s6.52-3.77,6.52-3.76S10,74.51,10,74.63s20-11.6,20-11.58c.1.18-20.59,16.56-20.5,16.71S38.39,63.09,38.41,63.12c.11.19-27.93,20.84-27.77,21.11,0,.07,37.1-21.72,37.23-21.49s-38,26.32-37.8,26.61S55.62,62.94,55.67,63,10.25,93.71,10.27,93.75C10.51,94.17,63,62.9,63.2,63.19c.07.12-53,34-52.71,34.49.06.09,59.82-35.11,60.07-34.68.11.2-60.7,39.57-60.43,40.05.39.67,69.43-40.15,69.45-40.1.21.35-68.91,44.38-68.76,44.65.34.59,76-44.83,76.39-44.1.19.33-77.41,48.94-77.07,49.54.19.33,85.25-50.36,85.75-49.5.11.19-86,53.82-85.85,54,.26.44,93.52-54.43,93.71-54.11s-93.5,58.35-93.35,58.62S111.71,62.54,112.17,63.33c.56,1-102.31,62.84-102.1,63.21S69.56,91.77,69.74,92.08c.05.09-60.45,39-60.12,39.53.11.19,60.93-35.43,61-35.25.34.6-59.66,39-59.64,39,.32.56,58.64-34.63,59-34,.17.3-59.92,38.63-59.73,39s59.29-34.92,59.58-34.41c.13.23-59.18,38.5-59,38.73s59-34.19,59.08-34.11c.25.43-60.38,38.84-60.18,39.18,0,0,59.89-35.14,60.13-34.72.11.19-59,38.38-58.82,38.72s59.47-34.45,59.52-34.37c.21.36-58.65,38.63-58.61,38.7s14.69-8.64,14.76-8.52-11.45,11.65-11.39,11.75,17.14-10,17.19-9.93-13.67,12.91-13.63,13,22.88-13.41,23-13.26c0,0-18.64,14.62-18.53,14.81s25.35-14.75,25.4-14.66S31.76,164.85,31.85,165s23.95-13.92,24-13.85S38.59,165.3,38.69,165.48s24.6-14.28,24.63-14.22-15.2,13.88-15.16,13.94c.13.23,24.7-14.36,24.75-14.29S56.16,165,56.2,165.05s25-14.46,25-14.44S64.93,165,65,165.14s24-14,24-13.89-15.53,14-15.5,14.05c.13.24,24.32-14.13,24.36-14.07S82.7,165,82.79,165.11s24.67-14.39,24.73-14.28S89.6,165.3,89.65,165.39s24.16-14,24.19-14-17.26,13.92-17.19,14,25-14.66,25.14-14.51-18.62,14.8-18.62,14.81,25.21-14.83,25.33-14.62-15.5,13.93-15.47,14S137,151.23,137,151.3s-15.64,13.87-15.58,14,23.94-13.86,24-13.83S130,164.93,130.11,165.06s34.34-20.05,34.44-19.88-28.1,20.5-28,20.68,27.46-16.1,27.57-15.92-19.75,15.73-19.64,15.93,18.94-11.13,19-11S152,165.62,152.05,165.71s9.25-5.36,9.25-5.34"/>
  <path class="cls-1" d="M366.68,62s3-1.74,3-1.74-1.84,5.78-1.81,5.83,8.46-4.9,8.47-4.89-9.06,10.3-9,10.37S384,61.85,384.05,62s-16.16,14.21-16.11,14.29,16.27-9.49,16.31-9.42-16.16,14.09-16.06,14.26,16.93-9.82,16.95-9.78-18.49,15.07-18.45,15.14,17.94-10.4,18-10.37-17.79,14.64-17.73,14.74,17.35-10.23,17.44-10.07S367.7,94.43,367.7,94.44s17.91-10.39,17.93-10.35-19,15.16-19,15.23,18.5-10.87,18.58-10.72S366.57,103.86,366.68,104s18.19-10.62,18.23-10.53"/>
  <path class="cls-1" d="M349.63,97.94s3.27-1.9,3.28-1.89"/>
  <path class="cls-1" d="M282.66,60.14l.54-.31s.29,4.12.29,4.13,5.13-3,5.13-3-4.7,7.71-4.7,7.72,13.78-8,13.78-8S282.54,74,282.57,74s23.78-13.79,23.8-13.74-23.45,18.05-23.44,18.07,31-18.14,31.13-18S282.54,82.87,282.61,83c.2.34,37.69-22.16,37.86-21.86S282.7,86.64,282.9,87c0,0,45.73-26.8,45.9-26.51s-45.51,30.47-45.29,30.85,51.85-30.61,52.14-30.11c.1.17-52.91,35.16-52.77,35.41,0,.07,54.57-31.93,54.75-31.61S282.81,101.09,283,101.34c.28.48,55.09-32.36,55.33-31.94s-54.67,36.12-54.45,36.5S338,74.43,338.11,74.56c.32.55-54.66,35.5-54.53,35.74.25.42,53.28-31.41,53.56-30.93.16.27-54.61,35.47-54.54,35.6.2.34,54.53-31.54,54.55-31.5.24.42-53.64,35.34-53.48,35.62.06.1,54.08-31.47,54.19-31.28.2.35-53.95,36.19-53.93,36.23.13.22,53.05-31,53.23-30.73s-54.4,35.17-54.08,35.72c.06.11,55.25-32.24,55.4-32s-54.23,36.07-54.21,36.11c.31.53,54-31.32,54.05-31.21s-55,36-54.76,36.46,53.33-31.23,53.52-30.9c.07.12-54.33,35-54.12,35.39s74.81-44.12,75.21-43.42c.15.24-74.89,47.46-74.69,47.82s77.51-45.21,77.71-44.87-78.92,49.53-78.5,50.25c0,.07,81.7-47.47,81.83-47.24.25.43-81.84,52.2-81.77,52.33.37.64,102-59.67,102.31-59.07.54.93-102.29,62.35-101.76,63.26.11.19,101.7-59.27,101.94-58.86,0,.06-100.63,62.74-100.52,62.93.38.66,99.51-57.9,99.71-57.56.41.71-93.5,58-93.42,58.13.27.46,94-54.73,94.17-54.37,0,0-87.14,54.11-87,54.31.41.72,86.31-50.64,86.66-50,.06.09-79.89,50.47-79.66,50.87s78.95-46.17,79.2-45.73c.35.61-71.11,45.63-71,45.75s71.8-41.53,71.83-41.47c.13.22-63.27,40.39-63.18,40.54.31.53,63.23-36.6,63.27-36.52s-57,37.29-56.93,37.47c.26.46,55.57-32.56,55.78-32.21s-48,32.13-47.95,32.21,48.42-28.08,48.47-28c.16.27-39,26.9-38.82,27.28s38.55-22.51,38.66-22.32-31.6,22.69-31.55,22.79,32.3-18.9,32.41-18.71-24.21,18.77-24.11,18.94,24.34-14.09,24.36-14.06-14.49,13.31-14.39,13.48,13-7.62,13.06-7.54-4.09,7.2-4.05,7.25,5.24-3.1,5.27-3"/>
  <path class="cls-1" d="M284,50.79s4.41-2.59,4.43-2.56-3.84,6.24-3.83,6.26,10.58-6.17,10.61-6.12-7.48,9.19-7.46,9.23,15.67-9.2,15.73-9.09-8.95,9.38-8.91,9.46S312,47.77,312,47.87s-8.6,9.83-8.59,9.85,16.29-9.56,16.36-9.44-8.28,9.73-8.25,9.78,17.76-10.38,17.82-10.28-8.66,10.1-8.66,10.1,15.92-9.2,15.93-9.19-7.74,8.87-7.73,8.89,15.35-9,15.43-8.91-7.76,9.1-7.73,9.15,17.14-10.1,17.23-10-9.92,9.81-9.87,9.9,16.45-9.69,16.54-9.55-7.93,9.64-7.9,9.68,17.17-10.12,17.26-10-8.52,9.2-8.51,9.22S373.71,50,373.74,50s-4.09,7.12-4.07,7.15,4.9-2.86,4.91-2.84"/>
  <path class="cls-1" d="M393.78,94.39s1.45-.85,1.45-.84-.82,4.51-.81,4.52S402,93.66,402,93.7s-8.39,9.72-8.37,9.75,16.55-9.72,16.63-9.59S393,108,393,108.1s20.27-11.87,20.34-11.75-19.93,16.35-19.9,16.39,19.12-11.23,19.2-11.09S392.83,118,392.89,118.1s20.6-12,20.67-11.93S393.21,123,393.22,123c.09.16,18.77-10.85,18.77-10.84s-18.26,14.92-18.24,15,18.19-10.71,18.28-10.56S393.29,132,393.35,132.06s20-11.77,20.07-11.59-20.06,15.57-20,15.73,19.27-11.36,19.37-11.18-13.91,13-13.87,13.12,14.31-8.43,14.38-8.3-5.64,7.55-5.64,7.56,4.82-2.81,4.83-2.79"/>
  <path class="cls-1" d="M393.71,77s3.49-2,3.51-2-3.05,5.78-3,5.8,9.74-5.69,9.77-5.64-10.6,11-10.57,11S411,75.87,411,76,399.6,86.78,399.65,86.88,413,79.08,413,79.16s-4.48,7.46-4.48,7.47,3.77-2.21,3.79-2.18"/>
  <path class="cls-1" d="M393.85,145.75l1.45-.84s-.82,4.51-.81,4.52,7.55-4.41,7.57-4.37-6.52,8.64-6.5,8.67,14.7-8.63,14.76-8.52-13.44,11.93-13.38,12,16.32-9.55,16.38-9.45-13.72,12.78-13.71,12.81,10.68-6.27,10.72-6.2-8.59,9.4-8.56,9.45,5.07-3,5.08-2.94"/>
  <path class="cls-1" d="M590.92,80c.19.32,45-26.12,45.05-26S601,78.77,601.24,79.14c.09.15,42.66-25.09,42.86-24.74s-34.15,24.43-34,24.76,39.66-23.31,39.84-23-31.87,22.78-31.74,23,31.22-18.33,31.35-18.1S621.81,81.29,622,81.57s27-15.95,27.19-15.7"/>
  <path class="cls-1" d="M591.76,94.87c.09.15,17.32-10.09,17.36-10s-9.39,10.31-9.38,10.32,18.1-10.5,18.12-10.46S609,94.89,609,94.91c.14.24,41-23.93,41.09-23.73s-34.38,24.27-34.36,24.3S649.43,76,649.46,76s-27.34,20.68-27.34,20.69,28.09-16.25,28.1-16.22"/>
  <path class="cls-1" d="M547.47,77.17s38.45-22.49,38.58-22.27-29.54,21.61-29.5,21.69c.21.35,38.72-22.7,38.87-22.44s-31.06,22.77-31,22.89c.17.29,38.82-22.51,38.86-22.44s-32,22.49-31.9,22.65,38.79-22.68,38.92-22.47S574.68,79.4,574.7,79.44s42.87-24.91,42.94-24.79S574.84,83.94,575,84.21s51-29.82,51.17-29.54-51.71,33.68-51.43,34.16c0,.09,13.67-7.93,13.68-7.9s-13.76,12.48-13.69,12.61,15.85-9.3,15.92-9.19-15,13.35-15,13.41,22.91-13.42,23-13.27"/>
  <path class="cls-1" d="M546.84,117s21.72-12.76,21.81-12.6-15.07,13-15,13.1,35-20.28,35.07-20.25-25.21,19.26-25.12,19.42,27.45-16.19,27.6-15.94c0,0-20,16.43-19.87,16.63s28.63-16.9,28.79-16.62c0,0-20.72,16.37-20.69,16.41s29.77-17.37,29.85-17.23-22.81,17.29-22.72,17.45,28.87-16.81,28.93-16.7-21.73,16.81-21.72,16.83c.14.25,56.64-33.14,56.83-32.81s-49.3,32.78-49.25,32.87S650.57,88.68,650.74,89s-40.58,27.71-40.48,27.88,39.28-22.68,39.28-22.68-31.41,23-31.33,23.15,32.19-19,32.35-18.68c0,0-26.68,20.29-26.59,20.44s25.85-15.16,25.95-15"/>
  <path class="cls-1" d="M517.06,57.2s4-2.38,4.06-2.34-3.83,6.33-3.81,6.36,10.92-6.38,11-6.32-10.8,10.93-10.74,11S537.94,54,538,54.11s-21,17-20.93,17,29.7-17.28,29.76-17.18S517.45,75.61,517.5,75.7s36.7-21.51,36.84-21.27S516.69,80.71,516.84,81,561.93,54.83,562,54.92,516.58,85.08,516.65,85.2,569,54.26,569.34,54.77,518,88.18,518.19,88.47c.32.55,58-33.86,58.13-33.56s-58.67,37.77-58.51,38,66.87-38.94,67-38.69S516.75,97.42,517,97.9c.13.22,26.3-15.53,26.45-15.27s-25.4,19.7-25.36,19.78,25.33-14.77,25.39-14.66-25.81,19-25.72,19.21,25.84-15.15,25.94-15S518,111.69,518,111.74s25.62-15.07,25.74-14.86-27,20.65-27,20.67,27.38-16.09,27.5-15.88-27.19,19.68-27.15,19.74c.13.23,28.86-16.74,28.89-16.68s-28,20.5-27.91,20.66,35.52-21,35.73-20.62-36.08,25-35.87,25.35c.09.16,44.66-26.19,44.83-25.88s-45.4,31.09-45.31,31.23,25.58-14.78,25.59-14.77c.13.23-25,19.26-24.9,19.43s30.24-17.79,30.38-17.54-29.69,21.52-29.6,21.69,37.1-21.52,37.15-21.45-31.07,22.67-31,22.85,39.33-22.94,39.43-22.76-31.79,22.68-31.7,22.83c.2.35,39.78-23.48,40-23.09.14.23-31.44,23.24-31.43,23.27s41.07-24,41.2-23.79c0,0-33.61,24.16-33.57,24.23.19.32,40.51-23.39,40.51-23.38.15.26-32.52,22.61-32.34,22.92s40.78-24,41-23.68c0,.09-32.72,23.06-32.61,23.27s39.89-23.44,40.06-23.13-33.8,24.06-33.72,24.2,41-24,41.15-23.76-31.61,23-31.54,23.15c.23.4,69-39.89,69-39.86.28.48-62.46,40-62.27,40.36,0,.07,61.56-35.55,61.56-35.55.3.52-52.41,34.83-52.19,35.2s52-30.07,52.06-30.06c.09.16-45.43,30.1-45.3,30.33,0,0,44.73-26.08,44.84-25.89s-37.08,25.49-37,25.6,38.21-22.47,38.38-22.17-30.93,21.65-30.75,22c0,0,30.22-17.77,30.36-17.53s-22.33,17.79-22.23,18,21.4-12.39,21.42-12.37S636,146.39,636,146.46s14.35-8.36,14.38-8.31-6.35,8.06-6.32,8.11,4.88-2.83,4.88-2.82"/>
  <path class="cls-1" d="M661.32,81.86s1.37-.8,1.38-.79-.65,4.45-.63,4.48,8.51-5,8.55-4.94-9.92,9.77-9.91,9.81,15.57-9,15.6-9-15.26,12.82-15.19,12.93,17-9.9,17-9.84-17.09,13.77-17,13.88,16.76-9.73,16.78-9.69-15.65,13.06-15.61,13.12,15.33-9,15.38-8.88-16.18,13.81-16.1,13.94,17-10,17.1-9.88-16.53,14.56-16.53,14.57,15.75-9.28,15.83-9.14-16.36,14.18-16.27,14.33,15.61-9.06,15.63-9S665.93,119.19,666,119.22s11.47-6.7,11.5-6.64-4,7.1-4,7.14,5.1-3,5.13-3"/>
  <path class="cls-1" d="M661.23,66.82S664.4,65,664.42,65s-2.58,5.55-2.56,5.59,10.41-6.13,10.46-6S660.9,75.16,660.92,75.2s15.42-9,15.45-8.92-7.9,8.63-7.87,8.69,9.33-5.42,9.35-5.39-2.35,5.36-2.34,5.39,2.1-1.21,2.1-1.21"/>
  <path class="cls-1" d="M661.39,126.42s1.37-.81,1.37-.8-.62,4.44-.6,4.47,8.48-5,8.53-4.93-8.06,8.71-8.05,8.73,13.71-8,13.73-7.92-11.48,10.67-11.43,10.76,13.13-7.65,13.16-7.6-11.34,10.49-11.3,10.57,8.33-4.84,8.34-4.82"/>
  <path class="cls-1" d="M501.07,155.46s5.07-3,5.09-2.94-5.42,7.14-5.4,7.17,12.16-7.1,12.19-7S501,164.38,501.07,164.43s20.06-11.78,20.15-11.63-17.54,14.26-17.47,14.39,26-15.19,26-15-17.66,15-17.64,15.08,25.29-14.85,25.39-14.66-17.33,14.91-17.28,15,26.76-15.66,26.85-15.5-17.69,15.31-17.69,15.32c.12.21,25-14.42,25-14.41s-16.79,14.07-16.77,14.11S562,152.76,562.08,153c0,0-16.81,14.26-16.76,14.36s26.12-15.39,26.25-15.16-19,15-18.88,15.11,25.42-15,25.55-14.75-17,14.8-16.91,14.88S587.46,152,587.6,152.24c0,0-17.54,14.39-17.52,14.42s24.1-14,24.16-13.95-15.9,13.89-15.85,14,24.92-14.55,25-14.43S586.61,166.89,586.67,167s25-14.58,25-14.45-15.5,14-15.5,14.06c.13.23,24.3-14.17,24.36-14.07s-16.81,14.8-16.79,14.83,26.18-15.45,26.32-15.2c0,.08-19.28,15.33-19.23,15.42s25.4-14.9,25.5-14.73-16.85,14-16.77,14.14,24.3-14.17,24.36-14.07-16.2,13.58-16.11,13.73,23.74-13.74,23.75-13.72S636,166.58,636,166.63s24.11-14.21,24.23-14c0,0-17.58,14.05-17.51,14.17s22.87-13.24,22.88-13.21S651,166.67,651,166.69s16.52-9.65,16.57-9.56-8.61,9.45-8.55,9.55,8.16-4.81,8.2-4.74"/>
</svg>
