<?xml version="1.0"?>
<svg xmlns="http://www.w3.org/2000/svg" id="Layer_1" data-name="Layer 1" viewBox="0 0 688 193">
  <defs>
    <style>.cls-1{fill:none;stroke:#572fa3;stroke-linecap:round;stroke-linejoin:round;stroke-width:3px;}.cls-2{fill:#572fa3;}</style>
  </defs>
  <path class="cls-1" d="M8.3,149.25l1.6-.93s-.26,4.38-.25,4.4,7.42-4.38,7.46-4.3-6.7,8.64-6.68,8.67,14.71-8.56,14.74-8.51S11.3,161.27,11.33,161.34s22.37-13.18,22.48-13-21.27,16.56-21.18,16.72c0,0,29.94-17.36,30-17.31S15.84,167.19,16,167.43c.05.09,33.45-19.46,33.51-19.35s-25,19-24.93,19.22,32.56-19,32.63-18.84-23.95,18.11-23.84,18.31,31.83-18.38,31.83-18.37-24.45,17.88-24.33,18.1,31-18.21,31.17-18-25,18.66-25,18.71,32.4-18.93,32.5-18.76-23.67,18.1-23.6,18.22c.17.29,31.85-18.69,32-18.46S64.4,166.74,64.47,166.86s31.86-18.42,31.87-18.4S72.66,167.1,72.68,167.14s33.71-19.87,33.89-19.56S82,166.46,82,166.51c.16.28,31.45-18.21,31.47-18.17s-25.65,18.75-25.61,18.83c.19.32,32.47-19.07,32.61-18.83,0,0-24.26,18-24.17,18.19,0,0,24-13.95,24-13.86s-17.23,14.12-17.22,14.15,17-10,17.08-9.86-9.79,10.29-9.76,10.34,9.62-5.59,9.63-5.56"/>
  <path class="cls-1" d="M36.47,94.29S47.2,88,47.23,88.08s-18,14.32-17.94,14.49S56.9,86.38,57,86.57,27.84,107.65,27.86,107.7s36.8-21.45,36.88-21.3-38.46,26.92-38.41,27c.16.28,45.35-26.3,45.4-26.21s-45.26,31.08-45.2,31.18S79.94,87.24,80.07,87.47s-54.61,35.37-54.34,35.85c0,0,59.73-35.25,60.06-34.67,0,0-60.06,38.34-59.73,38.91.12.21,63-36.66,63.11-36.44s-62.1,40-62,40.23c.23.41,65.19-38.19,65.43-37.78.1.18-66.41,42.51-66.18,42.92,0,0,69.38-40.15,69.42-40.08S26.5,140.51,26.5,140.52s72.69-42.28,72.82-42c.36.62-67.46,43.31-67.43,43.36s67.79-39.21,67.82-39.15c.21.36-58.36,38.4-58.3,38.5.32.56,60.7-35.17,60.76-35.08.21.38-52.76,35.23-52.72,35.29s53.68-31.36,53.84-31.08-45.67,30.91-45.4,31.38c.14.23,46.28-26.91,46.36-26.77s-37.87,26.54-37.84,26.6,37.28-22,37.49-21.64c0,.1-30.24,22-30.24,22,.1.18,30.86-18.14,31-17.9s-22.83,17.18-22.81,17.23,22.89-13.39,23-13.26-16.74,13.63-16.7,13.7,15.8-9.32,15.89-9.17-8,8.95-8,9,8.86-5.15,8.88-5.12"/>
  <path class="cls-1" d="M48,39.09C48,39.16,58.44,33,58.44,33S41.54,47.32,41.57,47.38,67.75,32,67.86,32.2,39.94,52.69,40.1,53c0,.06,33.24-19.56,33.4-19.29S40.32,56.82,40.4,57,76.86,35.58,77,35.84c0,0-37.05,25.8-37,25.89C40.17,62,81.75,37.3,81.9,37.55S41,65.34,41.16,65.65,84.82,40.43,84.82,40.44,43,68.44,43.11,68.69,86.68,43.06,86.89,43.41C87,43.58,45,72.08,45.1,72.33c0,.07,43.41-25.11,43.43-25.07S48,74.83,48,74.83c.11.19,40.7-23.75,40.81-23.56.2.35-38.14,26.17-38,26.44S89.41,55,89.61,55.32c.09.15-33.54,24.33-33.48,24.43S89.31,60.18,89.49,60.49c0,.07-28.35,21.06-28.35,21.07s27.59-16.22,27.72-16S68.61,82,68.73,82.2s15.31-9,15.37-8.88"/>
  <path class="cls-1" d="M509.23,117.82s2.7-1.58,2.71-1.57-1.82,5.88-1.82,5.88,6.3-3.66,6.31-3.64-7.45,8.93-7.44,9,11.52-6.75,11.56-6.68-10.69,10.74-10.65,10.82,11.51-6.67,11.52-6.65-11.32,10.7-11.29,10.76S522,128.83,522,128.86"/>
  <path class="cls-1" d="M512.35,89.16s2.44-1.43,2.45-1.42-1.56,5.73-1.55,5.73,7.08-4.12,7.1-4.09-8.24,9.38-8.23,9.4S527.93,89.5,528,89.61s-15,13.21-15,13.31,20.81-12,20.83-12-20.64,16-20.59,16.14,27.09-15.72,27.12-15.66c.17.29-28.27,20.5-28.26,20.53.16.27,33.41-19.36,33.44-19.31.14.23-29.25,21.06-29.17,21.2s36.38-21.08,36.41-21c.15.25-31.77,22.94-31.75,23s37.35-21.83,37.47-21.63-35,24.92-34.86,25.23c.06.1,43.62-25.24,43.64-25.2.25.43-42.79,29.4-42.7,29.55s48.49-28.51,48.72-28.13c0,.08-48.77,32.79-48.55,33.17s50.14-29.5,50.38-29.08S522.64,134.58,522.87,135c0,.08,51.1-29.64,51.16-29.54.21.37-61.69,39.36-61.35,39.95.24.41,62-36.58,62.36-36S513.36,150,513.38,150.07c.2.34,61-35.92,61.33-35.41,0,0-62,40.07-61.67,40.71.23.39,62.25-35.95,62.25-35.94s-62.54,41.22-62.52,41.25,61.15-35.83,61.38-35.43-57.75,37.47-57.48,37.93c0,0,58.15-33.77,58.24-33.62s-51.6,34.31-51.59,34.34c.13.23,51.42-30.36,51.71-29.85s-45.65,30-45.38,30.45c0,0,45.57-26.51,45.66-26.36s-39.66,26.92-39.57,27.08c0,0,39.7-23.43,39.92-23.05.08.14-34.47,23.6-34.31,23.88s34.26-19.84,34.29-19.79-26.82,20.17-26.71,20.36,25.52-14.76,25.53-14.74-20.09,16-20,16.19,20.29-11.88,20.36-11.76S562.43,167.94,562.45,168s12.66-7.46,12.72-7.35-8,8.71-7.93,8.76,8.2-4.82,8.24-4.75-2.42,5.5-2.4,5.52l1.91-1.11"/>
  <path class="cls-1" d="M641.39,112.53s2.28-1.34,2.29-1.32"/>
  <path class="cls-1" d="M581.45,97s3.12-1.82,3.13-1.8-2.24,6.12-2.24,6.12,11.59-6.74,11.61-6.7-12.75,12-12.74,12,24-14.07,24.08-13.9c0,0-23.25,17.89-23.17,18s32.68-18.92,32.7-18.88-32.54,22.85-32.46,23,42.3-24.55,42.35-24.46c.25.43-43.51,29.29-43.49,29.33.24.42,52-30.12,52-30,.23.4-51.53,33.79-51.39,34,.27.47,62-35.95,62.08-35.84.27.47-61.31,39.94-61.26,40s60.39-35.3,60.58-35-61.14,39.71-60.84,40.23c.08.14,62.33-36.06,62.36-36,.35.61-63.17,41.07-63,41.29s61.82-36.34,62.1-35.85c.06.09-62.52,40.59-62.24,41.07s62.4-36.71,62.7-36.2-62.43,40.55-62.16,41c0,.08,48.18-27.94,48.23-27.85.17.29-48.81,32.08-48.54,32.56.18.31,47.68-28.13,47.94-27.68s-47.26,32.33-47.25,32.36c.16.26,47.09-27.71,47.31-27.32,0,0-47.94,32.13-47.65,32.62.18.32,50-28.86,50-28.85s-50.28,34.14-50.26,34.17,51.91-30.42,52.1-30.08-45.91,30.76-45.69,31.13c0,0,50.44-29.29,50.51-29.16s-40.27,27.78-40.25,27.8c.11.2,45.31-26.76,45.57-26.31s-36.09,24.59-35.87,25c0,0,36.08-21,36.15-20.88s-26.78,19.55-26.72,19.66S644.6,149.72,644.75,150c0,.08-18.34,14.45-18.25,14.61s18.22-10.54,18.23-10.52-6.78,8.77-6.74,8.83,5.56-3.22,5.57-3.21"/>
  <path class="cls-1" d="M560.74,42.71c0,.06,11.71-6.88,11.76-6.79S556,50.26,556,50.27,580.9,35.8,580.94,35.88,553.17,56.5,553.2,56.55s34.36-20.18,34.51-19.92c0,0-34.11,24.07-34,24.28s37.6-21.76,37.62-21.72-37.08,25.45-37,25.6,40.7-23.6,40.75-23.52c.23.41-41,27.81-40.93,27.85.2.34,42.76-24.79,42.8-24.72.19.32-40.79,27.66-40.68,27.85.19.34,44-25.47,44-25.4.19.32-41.06,28.29-41,28.35s41.87-24.48,42-24.25S561.82,78.36,562,78.71c.05.09,42.13-24.38,42.15-24.34.23.39-39.3,27.4-39.22,27.54s38.71-22.76,38.88-22.45c0,0-34.41,24.64-34.25,24.91S603.79,64.25,604,64.53s-27.59,20.77-27.46,21c0,0,24.39-14.14,24.42-14.09s-15.5,13.25-15.41,13.41,10.94-6.44,11-6.34"/>
  <path class="cls-1" d="M635.27,120.91s7.85-4.61,7.88-4.56S634,126.48,634,126.48s11.28-6.56,11.3-6.52-11.66,11.35-11.65,11.38,12.64-7.41,12.69-7.33-9.56,10.09-9.52,10.16,8.73-5.06,8.74-5-5.07,7.13-5,7.16,5.53-3.21,5.54-3.2"/>
  <path class="cls-1" d="M364.57,125s2.26-1.34,2.27-1.32-.85,5.42-.83,5.45,15.56-9.2,15.65-9-16.56,14.11-16.54,14.14,19.93-11.69,20-11.55"/>
  <path class="cls-1" d="M365.26,75.83c.09.15,16.58-9.64,16.61-9.59s-1.74,5.54-1.74,5.55,10.21-6,10.26-5.92-.77,5.25-.76,5.27S398,66.27,398,66.31s-5.74,7.39-5.73,7.41,5.46-3.17,5.47-3.16S392,78.32,392,78.38s10-5.75,10-5.75-8.86,9.13-8.83,9.17,10.43-6.16,10.49-6.06-12,11-12,11.1,11.13-6.55,11.19-6.46-10.32,10.84-10.28,10.91S404,84.52,404.1,84.63s-11.48,11.69-11.45,11.74,11.79-6.85,11.8-6.81-12,11-11.9,11.11S403.4,94.4,403.4,94.4s-11.66,10.84-11.64,10.89,9.4-5.5,9.43-5.45-8.39,9.86-8.37,9.88,1.71-1,1.71-1"/>
  <path class="cls-1" d="M327.16,70.4s8.38-4.89,8.4-4.85-1.35,5.07-1.35,5.08S340,67.3,340,67.31s.39,4.49.41,4.52,6.53-3.8,6.54-3.78-.79,5.45-.77,5.48,6.26-3.67,6.28-3.63-.94,5.37-.92,5.41,6.67-3.87,6.68-3.86-1.14,5.27-1.13,5.28,14.53-8.54,14.6-8.42S355.5,82.58,355.58,82.73s5.69-3.3,5.7-3.29-4.91,7.45-4.87,7.52,5.69-3.35,5.72-3.3-5.44,8-5.42,8S361.32,89,361.34,89s-4.72,7.52-4.71,7.55,4.13-2.4,4.13-2.39-4.3,6.7-4.3,6.71,4.24-2.48,4.25-2.46-5.17,8-5.12,8,5.9-3.44,5.92-3.42-5.79,8.27-5.78,8.29,6.62-3.89,6.65-3.84-6.19,8.05-6.19,8.06,5.24-3.08,5.27-3-3.19,6.11-3.19,6.11,3.66-2.12,3.67-2.11"/>
  <path class="cls-1" d="M314,74.44s4-2.34,4-2.32-3.82,6.22-3.81,6.25,10.9-6.37,10.94-6.31-10.8,10.73-10.72,10.86,11.08-6.41,11.08-6.4-10.75,11-10.75,11,10.81-6.25,10.82-6.24-10.4,9.93-10.34,10,10.37-6,10.39-6-6.41,8.83-6.38,8.87,5.86-3.43,5.88-3.39-4.83,7.65-4.79,7.72,5.41-3.16,5.43-3.13-2.91,6.1-2.9,6.12,3.33-2,3.34-1.93-1.17,5.28-1.15,5.3,1-.55,1-.55"/>
  <path class="cls-1" d="M320.81,67.14s2.31-1.37,2.32-1.34"/>
  <path class="cls-1" d="M401.14,106.48s.67-.4.68-.39-6.08,8.41-6.05,8.46,10.6-6.27,10.66-6.16-16.79,14.24-16.77,14.28,20.07-11.79,20.16-11.64-21.25,16.71-21.19,16.8,19.43-11.34,19.48-11.25-16.1,13.5-16,13.67,10.6-6.2,10.64-6.14-6.68,8.4-6.66,8.45,1.53-.9,1.54-.89"/>
  <path class="cls-1" d="M406.7,98s1.87-1.12,1.89-1.09-1.38,5.72-1.36,5.75,5.93-3.51,6-3.45-3.31,6.48-3.3,6.5,6.51-3.82,6.53-3.77"/>
  <path class="cls-1" d="M383.65,132.81s1.05-.63,1.06-.62-1.7,5.91-1.69,5.94,6.29-3.72,6.33-3.65-7.27,8.76-7.26,8.78,10.63-6.23,10.67-6.16"/>
  <path class="cls-1" d="M265.86,41.76s9.73-5.74,9.78-5.65S260,50,260.1,50.05s26.18-15.47,26.33-15.2c.06.09-29.15,21.34-29.11,21.4s34.41-20.2,34.55-20-34,24-33.94,24.16,38.64-22.54,38.75-22.36S258,64.35,258.19,64.75c.12.21,41.39-24.19,41.52-24,0,0-40.37,27.63-40.25,27.84s43.11-25.12,43.21-25c.23.39-43.05,29.55-43,29.61.21.36,46.64-27.53,46.9-27.08,0,0-44.54,29.51-44.37,29.8s46-26.9,46.14-26.64c.25.42-43.1,29-43,29.19.22.38,42.9-25,43-24.82s-39.94,27.43-39.73,27.79c.08.14,40.88-23.85,41-23.66s-38.2,26.05-38.05,26.3S309.09,62,309.3,62.38s-32,23.41-31.87,23.59,32-18.71,32.07-18.52-24.27,19-24.2,19.16,20.13-11.82,20.22-11.67"/>
  <path class="cls-1" d="M306.26,121.83s18.05-10.54,18.1-10.45-15.71,13.29-15.68,13.35S325,115.27,325,115.29s-14.29,12.84-14.21,13,19-11,19-11-16.51,14.41-16.44,14.52,22.35-13.09,22.43-13-19.2,15.73-19.1,15.9,27-15.65,27-15.6-22,17.22-22,17.31,28.42-16.7,28.55-16.48c0,.07-24.4,19-24.28,19.16s30.2-17.52,30.23-17.45S333,139.54,333.11,139.77s27-15.88,27.12-15.66S341,140,341,140.1s19.65-11.53,19.73-11.39-11,11.11-10.94,11.14,9.58-5.56,9.6-5.54"/>
  <path class="cls-1" d="M257.71,123.75c.07.11,53.5-31.33,53.69-31s-53.65,34.71-53.51,35,55.85-32.67,56-32.35-56.29,36.41-56,37c.08.13,58.89-34,58.91-34,.19.34-58.73,38.71-58.73,38.71.35.59,60.76-35.12,60.78-35.09.3.52-61.36,38.75-61,39.31.21.37,62.36-36.29,62.48-36.07,0,.06-62.24,40.75-62.08,41s63.25-37,63.45-36.64-65.42,41.88-65.05,42.52c0,0,49.1-28.73,49.27-28.44s-48.75,32.41-48.67,32.54,49.05-28.77,49.24-28.43c.05.08-49,32.63-48.88,32.86s48.83-28.21,48.84-28.2c.27.48-47.07,31.06-46.91,31.35s46.85-27.25,46.94-27.1-39.28,26.48-39.07,26.84,38-22.06,38.07-22-30.36,22.35-30.22,22.6S306.6,146,306.62,146s-22.5,17.37-22.45,17.45,22.5-13.09,22.54-13-15.29,13.66-15.28,13.68,15-8.69,15-8.67-7.23,8.45-7.23,8.45S306,160,306.05,160"/>
  <path class="cls-1" d="M251.23,95.47s8.29-4.88,8.33-4.81-13.86,12.85-13.81,12.94,24.08-14.23,24.23-14c0,.09-28.76,21.11-28.73,21.17s36.23-21.27,36.39-21-38.6,26.64-38.51,26.81,46.67-27.24,46.8-27c.22.39-49.76,32.48-49.47,33,.16.28,56.49-33,56.66-32.71,0,0-58.4,37.93-58.23,38.22s65.85-38.36,66-38.11c.36.62-68.75,44.35-68.7,44.44.34.6,75.71-44.69,76.14-43.95,0,0-76.78,47.85-76.5,48.34.07.13,26.54-15.52,26.62-15.37s-27,19.78-26.91,19.93,22.84-13.32,22.9-13.22-24.17,18.5-24,18.73c0,.08,22.69-13.24,22.76-13.13s-24.48,18.23-24.38,18.4,22.66-13.37,22.79-13.16-22,17.71-21.9,17.84,21.67-12.68,21.74-12.55-19.09,16.06-19,16.17,16.78-9.86,16.85-9.73-14.66,12.51-14.65,12.53,13.8-8,13.83-8"/>
  <path class="cls-1" d="M334.69,78.55c.06.1,11.55-6.72,11.57-6.68s-4.65,7.21-4.64,7.23,9.05-5.32,9.09-5.25-3.84,7-3.82,7,11-6.44,11-6.38S352,82,352,82.05s6.54-3.8,6.55-3.79"/>
  <path class="cls-1" d="M335.43,87.43s6.51-3.8,6.53-3.77-.11,4.35-.1,4.36,4-2.34,4-2.33,1.66,3.76,1.68,3.78,11.3-6.57,11.32-6.53-6.44,8.67-6.4,8.72,6.37-3.73,6.39-3.69"/>
  <path class="cls-1" d="M334.65,97.54s6.82-4,6.84-4-.95,4.58-.94,4.6,5.58-3.26,5.6-3.23.5,4.33.52,4.37,12.18-7,12.18-7-6.49,8.54-6.49,8.54S359.08,97,359.08,97"/>
  <path class="cls-1" d="M323.05,69.3s.52-.31.52-.3-.42,5.18-.4,5.2,9.59-5.67,9.65-5.57-10.69,10.73-10.68,10.76,16.31-9.57,16.38-9.46-15.32,13.33-15.28,13.4,20.82-12.16,20.88-12.06S323,87.57,323.17,87.8c0,0,8.9-5.21,8.93-5.16s-8.67,9.53-8.63,9.59S337.62,84,337.65,84,322.19,97.71,322.2,97.73s11.16-6.56,11.21-6.47-9.64,9.65-9.59,9.72,14.59-8.53,14.63-8.45-12.94,11.76-12.89,11.84,6-3.49,6-3.47-4.83,7.56-4.79,7.63,10.25-6,10.28-5.93-9.23,9.56-9.19,9.63,14.4-8.5,14.48-8.36-9.3,10.48-9.26,10.54,16.56-9.69,16.62-9.59-8.61,10.07-8.57,10.13,17.47-10.27,17.55-10.14-12.52,11.28-12.51,11.3,12.59-7.33,12.62-7.29-5.61,7.52-5.6,7.53,5.68-3.28,5.68-3.28"/>
  <path class="cls-1" d="M371,81c.12.2,22.85-13.29,22.89-13.22s-10.29,10.46-10.27,10.48,10.72-6.29,10.77-6.21-6.95,8.77-6.92,8.82,8.67-5.06,8.7-5"/>
  <path class="cls-1" d="M371.8,89.91s11.95-7,12-6.92-.1,4.35-.09,4.36,11.07-6.41,11.08-6.4-6.26,8.28-6.22,8.35,7.33-4.27,7.34-4.24"/>
  <path class="cls-1" d="M370.92,99.81s12-7,12.05-7-.93,4.57-.92,4.59,13.08-7.65,13.13-7.58-7.37,8.8-7.32,8.9,7.78-4.5,7.78-4.49"/>
  <path class="cls-1" d="M353.2,78.9s4.4-2.6,4.42-2.55-3.55,7-3.52,7S376.66,70,376.79,70.25c0,.07-23,17.81-23,17.86S386.84,68.71,387,69,355.53,91.5,355.61,91.64,367,85,367,85.06,356.17,95.57,356.25,95.7s17.91-10.47,18-10.38-17,14.3-17,14.39,9.05-5.27,9.07-5.24-9.74,10.39-9.73,10.4S375.43,93.77,375.53,94c0,0-17.68,14.22-17.61,14.34s9.68-5.65,9.71-5.6-8.32,9.12-8.29,9.17,12.31-7.18,12.34-7.12S360,116.18,360.07,116.3s24.49-14.29,24.56-14.18-23.82,17.87-23.73,18,34-20.08,34.22-19.75-31,22.86-30.91,23,32-18.73,32.12-18.54-27.83,21-27.75,21.2,22.95-13.48,23.05-13.3-13,11.57-13,11.58,8.65-5,8.67-5"/>
  <path class="cls-2" d="M239.68,160h11.6a10,10,0,0,1-5.73,1.79,6.8,6.8,0,0,1-2-.2A9.67,9.67,0,0,1,239.68,160Z"/>
</svg>
