<?xml version="1.0" encoding="utf-8"?>
<!-- Generator: Adobe Illustrator 19.0.0, SVG Export Plug-In . SVG Version: 6.00 Build 0)  -->
<svg version="1.1" id="Layer_1" xmlns="http://www.w3.org/2000/svg" xmlns:xlink="http://www.w3.org/1999/xlink" x="0px" y="0px"
	 viewBox="0 0 162 146.9" style="enable-background:new 0 0 162 146.9;" xml:space="preserve">
<style type="text/css">
	.st0{fill:#F4F6FF;}
</style>
<g id="XMLID_1074_">
	<g id="XMLID_1075_">
		<path id="XMLID_1077_" class="st0" d="M36.3,57.5h19.6v63.1H36.3V57.5z M46.1,26.1c6.3,0,11.4,5.1,11.4,11.4
			c0,6.3-5.1,11.4-11.4,11.4c-6.3,0-11.4-5.1-11.4-11.4C34.7,31.2,39.8,26.1,46.1,26.1"/>
		<path id="XMLID_942_" class="st0" d="M68.2,57.5H87v8.6h0.3c2.6-5,9-10.2,18.6-10.2c19.8,0,23.5,13.1,23.5,30.1v34.6h-19.6V89.9
			c0-7.3-0.1-16.7-10.2-16.7c-10.2,0-11.8,8-11.8,16.2v31.2H68.2V57.5z"/>
	</g>
</g>
</svg>
