<?xml version="1.0"?>
<svg xmlns="http://www.w3.org/2000/svg" viewBox="0 0 938.13 340.2">
  <defs>
    <style>.a{fill:#fff;}</style>
  </defs>
  <path class="a" d="M160.35,36.57C173,36.57,183,40.77,190.4,49s11.13,19.54,11.13,33.62v74.79h-30V87.2c0-8-1.89-14.29-5.67-18.7s-9-6.72-15.76-6.72c-7.35,0-13.23,2.52-17.44,7.77s-6.3,12.4-6.3,21.85v65.76H96.07V87.62c0-8-1.89-14.29-5.67-18.7s-9-6.72-15.76-6.72c-7.35,0-13.23,2.73-17.43,8S50.9,82.79,50.9,92.24v65.13H21.07V39.09H50.69V61.15C57.63,45,69.81,36.78,87,36.78c17.43,0,29.2,8.19,35.5,24.37C130.1,45,142.5,36.57,160.35,36.57Z"/>
  <path class="a" d="M315.39,39.3,345,39.09V157.37H315.39V133.84H315A44.69,44.69,0,0,1,297.75,153a50.34,50.34,0,0,1-25.84,6.73c-16.6,0-30.47-5.89-41.39-17.44-11.13-11.76-16.6-26.26-16.6-43.7,0-17.64,5.47-32.35,16.6-44.11s25-17.65,41.39-17.65q14.8,0,25.84,6.93A44.72,44.72,0,0,1,315,62.83h.42Zm-34.87,95c10.5-.21,19.33-3.57,26.05-10.3s10.08-15.33,10.08-25.84-3.36-18.9-10.08-25.84C299.85,65.56,291,62.2,280.52,62.2s-19.33,3.36-26,10.08-10.08,15.34-10.08,25.84,3.36,19.33,10.08,26.05S270,134.26,280.52,134.26Z"/>
  <path class="a" d="M417.7,159.89h-.21c-17.86,0-32.35-4.42-43.7-13.45-11.34-8.82-17.22-20.59-17.43-35.29h30c.21,7.77,3.15,13.86,8.82,18.48s13.45,6.94,22.9,6.94q11.34,0,18.28-4.41t6.93-12c0-6.93-4.83-11.13-14.49-12.39l-27.53-3.36c-23.52-3-35.29-13.24-35.29-30.68,0-11.13,4.41-20.16,13-26.89s20.37-10.08,35.29-10.08,26.47,2.94,35.29,8.82c8.62,5.89,13.87,14.29,15.34,25.21h-30c-2.52-8.19-9.46-12.39-20.59-12.39-5.88,0-10.5,1.26-13.87,3.57a11.07,11.07,0,0,0-5.25,9.87q0,9.47,13.87,11.35l27.1,3.36c24.37,2.94,36.34,13.65,36.34,31.72,0,12.4-5,22.48-15.12,30C447.53,156.1,434.09,159.89,417.7,159.89Z"/>
  <path class="a" d="M545.64,134.68a53.46,53.46,0,0,0,21.43-4v24.57c-8.41,3.16-18.28,4.84-29.83,4.84-13.66,0-24-3.79-31.31-11.56S495,130.27,495,117V64.09H473.16V42.24l7.56-.42c10.93-.63,16.6-7.14,17.23-19.54L499,5.48h25.21v34H563.5V64.09H524.21v51.05C524.21,128,531.14,134.68,545.64,134.68Z"/>
  <path class="a" d="M650.68,36.78a23.06,23.06,0,0,1,4.41.21V66.4h-5.88c-25,0-37.61,15.13-37.61,45.59v45.38H582V39.3h28.36V74h.21C616.65,49.38,629.88,36.78,650.68,36.78Z"/>
  <path class="a" d="M752.78,108.84h30c-1.05,15.12-7.14,27.31-18.7,36.76s-26,14.08-43.07,14.08c-19.11,0-34.66-5.89-46.63-17.44s-18.07-26.47-18.07-44.54c0-17.85,5.88-32.35,17.86-43.9,12-11.35,27.31-17.23,46-17.23S753.83,42,765,53.17,781.35,79,780.72,97.28h-96c.21,11.56,3.36,20.59,9.88,27.31s14.91,10.09,25.62,10.09c9,0,16.6-2.31,22.48-7.15A25.38,25.38,0,0,0,752.78,108.84Zm-33.2-50.21c-14.7,0-25,5.88-30.67,17.65h60.3Q741.64,58.63,719.58,58.63Z"/>
  <path class="a" d="M887,108.84h30c-1,15.12-7.14,27.31-18.7,36.76s-26.05,14.08-43.06,14.08c-19.12,0-34.67-5.89-46.64-17.44s-18.07-26.47-18.07-44.54c0-17.85,5.88-32.35,17.86-43.9,12-11.35,27.31-17.23,46-17.23S888.07,42,899.2,53.17,915.59,79,915,97.28h-95.8c.21,11.56,3.36,20.59,9.88,27.31s14.91,10.09,25.63,10.09c9,0,16.59-2.31,22.47-7.15A25.86,25.86,0,0,0,887,108.84Zm-33.2-50.21c-14.7,0-25,5.88-30.67,17.65h60.3Q875.88,58.63,853.82,58.63Z"/>
  <path class="a" d="M53,302.74a24.34,24.34,0,0,1-13.86-4,25.62,25.62,0,0,1-9-10.93H29.9v13.87h-8v-91h8.41V249.8h.21a22.26,22.26,0,0,1,8.82-10.71,23.68,23.68,0,0,1,13.65-4,24.82,24.82,0,0,1,20,9.25q7.56,9.14,7.56,24.58c0,10.29-2.52,18.27-7.56,24.58S61.2,302.74,53,302.74Zm-1.68-60.29A18.89,18.89,0,0,0,36.2,249.8c-4,4.83-5.88,11.34-5.88,19.12S32.21,283.2,36.2,288a18.87,18.87,0,0,0,15.12,7.36c6.31,0,11.35-2.31,15.13-7.15s5.67-11.13,5.67-19.32-1.89-14.5-5.67-19.33S57.63,242.45,51.32,242.45Z"/>
  <path class="a" d="M104.47,325.22a25.85,25.85,0,0,1-4.2-.42v-6.93a19.33,19.33,0,0,0,4,.42,9.87,9.87,0,0,0,7.15-2.53c1.89-1.68,3.57-4.62,5-8.61l1.68-4.83-24.58-66h9l20,57.14h.21l20-57.14h8.82l-25.84,69.53c-2.94,7.77-5.67,12.82-8.61,15.55Q112.67,325.22,104.47,325.22Z"/>
  <path class="a" d="M214.76,210.73v58.61c0,7.77,2.32,13.86,7.15,18.69,4.83,4.63,11.13,7.15,19.53,7.15,8.2,0,14.71-2.31,19.54-7.15,4.83-4.62,7.14-10.92,7.14-18.69V210.73h8.62v59q0,14.81-9.46,23.95C261,299.8,252.37,303,241.65,303s-19.32-3.15-25.62-9.24-9.46-14.08-9.46-23.95v-59Z"/>
  <path class="a" d="M301.74,301.69V236.15h7.77v12.18h.21a20.39,20.39,0,0,1,8.19-9.66,25.18,25.18,0,0,1,13.45-3.58c7.14,0,12.81,2.11,17,6.52s6.31,10.29,6.31,17.64v42.44h-8.41V260.51q0-8.5-4.41-13.23c-2.94-3.15-7.35-4.62-12.81-4.62-5.67,0-10.3,1.89-13.66,5.67-3.57,3.78-5.25,8.61-5.25,14.71V301.9Z"/>
  <path class="a" d="M397.32,302.74c-6.51,0-11.76-1.68-15.75-5.25a17.85,17.85,0,0,1-6.09-13.87,16.67,16.67,0,0,1,6.09-13.44c4-3.36,9.87-5.25,17.43-5.67l20.38-1.26v-5.68c0-4.83-1.47-8.4-4.2-11.13-2.94-2.73-6.72-4-12-4-4.84,0-8.62,1.05-11.77,3.36a15.17,15.17,0,0,0-5.67,9.24H378a19.84,19.84,0,0,1,7.56-14.49c4.62-3.78,10.5-5.47,17.86-5.47,7.56,0,13.44,1.9,17.85,5.89s6.51,9.24,6.51,16v44.75h-8v-12.4h-.21a23.38,23.38,0,0,1-8.82,9.88A26.79,26.79,0,0,1,397.32,302.74ZM399,295.6a20.89,20.89,0,0,0,14.5-5.25,17,17,0,0,0,5.88-13.24V270l-19.33,1.26c-5.25.42-9,1.68-12,3.78a10.94,10.94,0,0,0,0,17.23A17.8,17.8,0,0,0,399,295.6Z"/>
  <path class="a" d="M504.46,256.94h-8.19a16.6,16.6,0,0,0-6.3-10.29c-3.36-2.73-7.35-4-12.4-4-6.51,0-11.55,2.31-15.33,7.14s-5.67,11.13-5.67,19.33,1.89,14.49,5.88,19.32c3.78,4.84,9,7.15,15.33,7.15,4.84,0,9-1.26,12.19-3.78a16.1,16.1,0,0,0,6.3-10.3h8.19a22.68,22.68,0,0,1-8.82,15.34c-4.83,4-10.92,5.88-18.07,5.88-9,0-16.17-2.94-21.63-9s-8.2-14.29-8.2-24.79q0-15.45,8.2-24.58c5.46-6.09,12.6-9.25,21.42-9.25,7.36,0,13.66,2.11,18.49,6.31A23.3,23.3,0,0,1,504.46,256.94Z"/>
  <path class="a" d="M543.75,302.74c-6.51,0-11.77-1.68-15.76-5.25a17.85,17.85,0,0,1-6.09-13.87A16.67,16.67,0,0,1,528,270.18c4-3.36,9.88-5.25,17.44-5.67l20.38-1.26v-5.68c0-4.83-1.47-8.4-4.2-11.13-3-2.73-6.73-4-12-4-4.83,0-8.61,1.05-11.76,3.36a15.19,15.19,0,0,0-5.68,9.24h-8a19.84,19.84,0,0,1,7.56-14.49c4.63-3.78,10.51-5.47,17.86-5.47,7.56,0,13.45,1.9,17.86,5.89s6.51,9.24,6.51,16v44.75h-8v-12.4h-.21a23.41,23.41,0,0,1-8.83,9.88A25.46,25.46,0,0,1,543.75,302.74Zm1.68-7.14a20.88,20.88,0,0,0,14.49-5.25,17,17,0,0,0,5.89-13.24V270l-19.33,1.26c-5.25.42-9,1.68-12,3.78a10.94,10.94,0,0,0,0,17.23A18.3,18.3,0,0,0,545.43,295.6Z"/>
  <path class="a" d="M622.32,302.74c-8.41,0-15.13-3.15-20.17-9.24-5.25-6.31-7.77-14.29-7.77-24.58,0-10.09,2.52-18.28,7.77-24.58,5-6.09,11.76-9.25,20.17-9.25a23.22,23.22,0,0,1,13.65,4,22.11,22.11,0,0,1,8.62,10.5h.21V210.73h8.4v91h-8V287.82H645a24.92,24.92,0,0,1-8.83,10.93A23.88,23.88,0,0,1,622.32,302.74Zm1.47-60.29c-6.3,0-11.35,2.31-15.13,7.14S603,260.72,603,268.71s1.89,14.28,5.67,19.11,8.83,7.15,15.13,7.15a18.3,18.3,0,0,0,15.12-7.36c3.79-4.83,5.89-11.34,5.89-19.11,0-8-1.89-14.29-5.89-19.12A19.17,19.17,0,0,0,623.79,242.45Z"/>
  <path class="a" d="M722.74,283h8.19a22.12,22.12,0,0,1-8.82,14.08c-4.84,3.57-10.93,5.46-18.07,5.46-9.24,0-16.39-2.94-21.85-9-5.25-6.1-8-14.29-8-24.58s2.73-18.49,8-24.58c5.25-6.3,12.4-9.46,21.22-9.46,8.61,0,15.54,3,20.59,8.83s7.77,13.65,7.77,23.53v3.57H682.61v.42c0,7.35,1.89,13.23,5.88,17.43,3.78,4.21,9,6.52,15.55,6.52,4.83,0,8.82-1.05,12.18-3.36A13.17,13.17,0,0,0,722.74,283Zm-19.33-40.54a19.19,19.19,0,0,0-14.5,6.09c-3.78,4-5.88,9.24-6.09,15.76h40.34q0-9.78-5.68-15.76C714.12,244.34,709.29,242.45,703.41,242.45Z"/>
  <path class="a" d="M752.36,301.69V236.15h7.77v12.18h.21a19.37,19.37,0,0,1,19.12-13.24A19.07,19.07,0,0,1,798.36,249h.21a21.73,21.73,0,0,1,20.8-13.87c6.3,0,11.56,1.9,15.34,5.89s5.88,9.24,5.88,15.75v44.75h-8.4V258.62c0-5-1.26-9-4-12s-6.31-4.41-11.14-4.41a15,15,0,0,0-11.76,5,18.76,18.76,0,0,0-4.63,12.81v41.18h-8.4v-43.7a16.07,16.07,0,0,0-4.2-11.34,14.71,14.71,0,0,0-10.92-4.2,15.18,15.18,0,0,0-12,5.25c-3.15,3.57-4.62,8-4.62,13.65v40.34h-8.19Z"/>
  <path class="a" d="M868.53,325.22a25.85,25.85,0,0,1-4.2-.42v-6.93a19.33,19.33,0,0,0,4,.42,9.84,9.84,0,0,0,7.14-2.53c1.89-1.68,3.57-4.62,5-8.61l1.69-4.83-24.58-66h9l20,57.14h.21l20-57.14h8.83l-25.84,69.53c-2.94,7.77-5.67,12.82-8.61,15.55Q876.72,325.22,868.53,325.22Z"/>
</svg>
