<?xml version="1.0"?>
<svg xmlns="http://www.w3.org/2000/svg" id="Layer_1" data-name="Layer 1" viewBox="0 0 302 302">
  <defs>
    <style>.cls-1,.cls-2,.cls-3,.cls-4{fill:none;stroke-linecap:round;stroke-linejoin:round;stroke-width:3px;}.cls-1{stroke:#6556c5;}.cls-2{stroke:#fff;}.cls-3{stroke:#b8b9f1;}.cls-4{stroke:#fa4675;}</style>
  </defs>
  <path class="cls-1" d="M201.09,44s7.32-4.28,7.35-4.24-10,10-9.94,10S224,34.93,224.1,35,199,54.31,199,54.32c.14.24,38.47-22.22,38.47-22.21s-37.5,25.79-37.38,26,42.14-24.63,42.27-24.4S201.82,61.57,202,61.82s44.23-25.6,44.26-25.55c.23.39-43.8,29.73-43.64,30s45.54-26.53,45.64-26.35-43.95,30-43.73,30.37c.1.17,44.91-26.39,45.11-26s-44.68,29.6-44.44,30c.05.09,44.42-26.14,44.63-25.76,0,.06-43.22,28.8-43.05,29.1s44.72-26.39,45-26c.14.23-44.15,30-43.9,30.43.1.17,44.95-26.29,45.1-26,.24.42-43.76,29.08-43.65,29.27.25.44,44.29-26.13,44.53-25.71s-41.84,28.75-41.68,29c0,.07,41.6-24.27,41.71-24.08S218.21,89,218.4,89.34c.07.11,37.7-22,37.78-21.81s-19.93,16.56-19.9,16.62,19.8-11.66,19.9-11.49"/>
  <path class="cls-2" d="M227.77,65.84S237.91,60,237.93,60s-3.06,6.48-3,6.54,5-2.9,5-2.87"/>
  <path class="cls-2" d="M224.45,52.68s4.91-2.86,4.92-2.85-3.07,6.33-3.07,6.33,5.92-3.48,5.95-3.43S229.76,59,229.79,59s4.25-2.48,4.26-2.46"/>
  <path class="cls-2" d="M220.09,48.56s4.95-2.89,5-2.87-6.2,7.87-6.19,7.89,10-5.86,10.07-5.82-10.41,10.8-10.4,10.81,4.82-2.79,4.82-2.79-5.07,7.29-5,7.34,5.19-3,5.21-3-4.79,7.49-4.76,7.54,17.05-9.87,17.06-9.85c.1.17-17.39,14.7-17.32,14.82S224.74,69,224.75,69"/>
  <path class="cls-2" d="M245.88,67.26s3-1.74,3-1.73-1.19,5-1.19,5,2.22-1.29,2.23-1.29"/>
  <path class="cls-3" d="M46.81,120.41s6.93-4,6.95-4-15.92,13.46-15.9,13.49,21.55-12.55,21.6-12.47-31.17,22.78-31.16,22.8c.12.2,33.4-19.3,33.4-19.29s-37.88,26-37.76,26.22,40.74-23.82,40.87-23.59-40.18,27.65-40,27.9S68.88,125.92,68.91,126c.22.39-43,29.26-42.8,29.53s46.37-27,46.48-26.83S29.81,158,30,158.37c.1.16,45.83-26.94,46-26.58S32.24,160.9,32.47,161.31c.05.09,45.34-26.68,45.56-26.3,0,.06-42.41,28.34-42.25,28.63s45.65-26.93,45.89-26.49c.13.22-43,29.34-42.75,29.77.1.17,45.79-26.78,45.94-26.53.24.41-43.48,28.92-43.37,29.11.25.45,44.7-26.37,44.95-25.95S44,172.65,44.15,172.94c0,.08,41.43-24.16,41.53-24S47.39,174.91,47.6,175.28c.06.11,36.17-21.06,36.24-20.93S51,178.35,51,178.44s22.53-13.27,22.64-13.07-16,13.78-16,13.87,6.15-3.63,6.19-3.57"/>
  <path class="cls-2" d="M50.67,128.8s3.82-2.23,3.83-2.21-8,8.91-8,8.93,10.36-6,10.38-6-14.65,13.24-14.64,13.25,9.92-5.73,9.92-5.72-11.85,11.15-11.8,11.23,7.94-4.65,8-4.6-4.9,7.56-4.87,7.61S66.55,137.92,66.56,138s-10.41,10.72-10.36,10.8,9.67-5.63,9.69-5.59-13.17,12.55-13.1,12.68,9.15-5.37,9.19-5.3-9.47,9.68-9.41,9.79,23.14-13.62,23.25-13.43c0,0-19.63,15.39-19.55,15.53s16.55-9.76,16.64-9.6"/>
  <path class="cls-2" d="M60.05,169.81l1.66-1"/>
  <path class="cls-2" d="M55.45,170.62s3.71-2.16,3.72-2.14-2.64,5.81-2.63,5.82,4.72-2.74,4.73-2.73"/>
  <path class="cls-4" d="M233.41,204.26s7.87-4.6,7.89-4.56-11.8,11.09-11.78,11.12,18.27-10.66,18.32-10.58-21.35,17.11-21.34,17.12,24.75-14.3,24.76-14.3-27.56,20.12-27.46,20.28,31.83-18.62,31.93-18.44-34.28,24.29-34.15,24.51,39.72-23,39.75-22.95c.21.38-41.56,28.46-41.4,28.72s46.46-27.07,46.57-26.88-45.3,30.75-45.07,31.14c.1.18,49.88-29.32,50.11-28.93s-49,32-48.71,32.48c.06.1,50.85-29.93,51.09-29.5.05.07-48.06,31.56-47.87,31.88S276.68,215.5,277,216c.14.25-46.76,31.47-46.49,31.93.1.18,47.69-27.89,47.84-27.62s-44.12,29.29-44,29.48c.25.43,43.66-25.77,43.9-25.35S238.34,252,238.5,252.31c0,.07,36.15-21.08,36.24-20.92s-31.62,22.18-31.44,22.49c0,.09,30-17.49,30.09-17.38S248,256.21,248,256.29s22.09-13,22.2-12.82S254,257.53,254.07,257.64s12.46-7.35,12.53-7.24"/>
  <path class="cls-2" d="M235,230.13s3.55-2.07,3.56-2.06-2.95,6.26-2.95,6.26,5.95-3.5,6-3.45-1.54,5.71-1.52,5.76,15.33-8.92,15.36-8.87S244.05,239,244.06,239s8.38-4.86,8.38-4.84"/>
  <path class="cls-2" d="M253.46,217.68s3.8-2.22,3.82-2.2-6.9,8.26-6.89,8.28,9.37-5.45,9.39-5.42l-12.41,12c0,.06,8.84-5.1,8.84-5.1"/>
  <path class="cls-2" d="M260.48,247.28l1.4-.81"/>
  <path class="cls-2" d="M258,246.84s3-1.77,3-1.76-4.75,7-4.75,7,1.92-1.11,1.92-1.11"/>
  <path class="cls-4" d="M170.69,199.31s6.22-3.65,6.25-3.61-8.67,10.08-8.63,10.15,15.93-9.36,16-9.24-15,12.55-14.95,12.68,22.09-12.94,22.17-12.8-23.27,17.89-23.12,18.14c0,.08,26.51-15.31,26.52-15.31s-26.3,19.1-26.15,19.35,28.94-16.88,29-16.75c.16.29-26.36,19.93-26.33,20S198,206.37,198.1,206.53,175.35,224,175.48,224.2s21.89-12.87,22-12.69S182,224.55,182,224.6s15.26-9,15.32-8.85-7.24,8.2-7.22,8.23,7.31-4.3,7.34-4.23"/>
  <path class="cls-3" d="M140.48,199.31s6.22-3.65,6.25-3.61-8.67,10.08-8.63,10.15,15.93-9.36,16-9.24-15,12.55-14.95,12.68,22.09-12.94,22.17-12.8-23.27,17.89-23.12,18.14c0,.08,26.51-15.31,26.52-15.31s-26.3,19.1-26.16,19.35,28.94-16.88,29-16.75c.16.29-26.36,19.93-26.33,20s26.55-15.54,26.64-15.38S145.14,224,145.27,224.2s21.88-12.87,22-12.69-15.49,13-15.47,13.09,15.26-9,15.32-8.85-7.24,8.2-7.22,8.23,7.3-4.3,7.34-4.23"/>
  <path class="cls-3" d="M110.26,199.31s6.23-3.65,6.25-3.61-8.66,10.08-8.62,10.15,15.93-9.36,16-9.24-15,12.55-15,12.68,22.09-12.94,22.17-12.8S107.84,214.38,108,214.63c0,.08,26.52-15.31,26.52-15.31s-26.29,19.1-26.15,19.35,28.94-16.88,29-16.75c.16.29-26.36,19.93-26.33,20s26.55-15.54,26.64-15.38S114.93,224,115.06,224.2s21.88-12.87,22-12.69-15.49,13-15.47,13.09,15.26-9,15.32-8.85-7.24,8.2-7.22,8.23,7.3-4.3,7.34-4.23"/>
  <path class="cls-3" d="M79.74,199.31S86,195.66,86,195.7s-8.67,10.08-8.63,10.15,15.93-9.36,16-9.24-15,12.55-15,12.68,22.09-12.94,22.17-12.8-23.27,17.89-23.12,18.14c0,.08,26.51-15.31,26.52-15.31s-26.3,19.1-26.16,19.35,28.94-16.88,29-16.75c.16.29-26.36,19.93-26.33,20s26.55-15.54,26.64-15.38S84.4,224,84.53,224.2s21.88-12.87,22-12.69S91,224.55,91,224.6s15.26-9,15.32-8.85S99.12,224,99.14,224s7.3-4.3,7.34-4.23"/>
  <path class="cls-3" d="M140.48,168.5s6.22-3.65,6.25-3.61S138.06,175,138.1,175s15.93-9.36,16-9.23-15,12.54-14.95,12.67,22.09-12.93,22.17-12.8-23.27,17.89-23.12,18.14c0,.08,26.51-15.31,26.52-15.31s-26.3,19.1-26.16,19.35,28.94-16.88,29-16.75c.16.29-26.36,19.93-26.33,20s26.55-15.54,26.64-15.38-22.75,17.45-22.62,17.67,21.88-12.87,22-12.69-15.49,13-15.47,13.09,15.26-9,15.32-8.85-7.24,8.2-7.22,8.24,7.3-4.3,7.34-4.24"/>
  <path class="cls-4" d="M170.69,168.5s6.22-3.65,6.25-3.61S168.27,175,168.31,175s15.93-9.36,16-9.23-15,12.54-14.95,12.67,22.09-12.93,22.17-12.8-23.27,17.89-23.12,18.14c0,.08,26.51-15.31,26.52-15.31s-26.3,19.1-26.15,19.35,28.94-16.88,29-16.75c.16.29-26.36,19.93-26.33,20S198,175.56,198.1,175.72s-22.75,17.45-22.62,17.67,21.89-12.87,22-12.69-15.5,13-15.48,13.09,15.26-9,15.32-8.85-7.24,8.2-7.22,8.24,7.31-4.3,7.34-4.24"/>
  <path class="cls-3" d="M200.9,168.5s6.23-3.65,6.25-3.61S198.49,175,198.53,175s15.92-9.36,16-9.23-15,12.54-15,12.67,22.1-12.93,22.17-12.8-23.27,17.89-23.12,18.14c0,.08,26.52-15.31,26.52-15.31s-26.3,19.1-26.15,19.35,28.94-16.88,29-16.75c.16.29-26.35,19.93-26.32,20s26.54-15.54,26.63-15.38-22.74,17.45-22.62,17.67,21.89-12.87,22-12.69-15.5,13-15.47,13.09,15.25-9,15.31-8.85-7.24,8.2-7.22,8.24,7.31-4.3,7.34-4.24"/>
  <path class="cls-4" d="M170.69,106.88s6.22-3.65,6.25-3.61-8.67,10.08-8.63,10.15,15.93-9.36,16-9.23-15,12.54-14.95,12.67,22.09-12.93,22.17-12.8S168.26,122,168.41,122.21c0,.07,26.51-15.32,26.52-15.32s-26.3,19.1-26.15,19.35,28.94-16.88,29-16.75c.16.29-26.36,19.93-26.33,20S198,113.94,198.1,114.1s-22.75,17.45-22.62,17.67,21.89-12.86,22-12.69-15.5,13-15.48,13.09,15.26-8.95,15.32-8.85-7.24,8.2-7.22,8.24,7.31-4.3,7.34-4.24"/>
  <path class="cls-3" d="M110.26,137.69s6.23-3.65,6.25-3.61-8.66,10.08-8.62,10.15,15.93-9.36,16-9.23-15,12.54-15,12.67,22.09-12.93,22.17-12.8S107.84,152.76,108,153c0,.07,26.52-15.32,26.52-15.32s-26.29,19.1-26.15,19.35,28.94-16.88,29-16.75c.16.29-26.36,19.93-26.33,20s26.55-15.54,26.64-15.38-22.75,17.45-22.62,17.67,21.88-12.87,22-12.69-15.49,13-15.47,13.09,15.26-8.95,15.32-8.85-7.24,8.2-7.22,8.24,7.3-4.3,7.34-4.24"/>
  <path class="cls-3" d="M140.48,137.69s6.22-3.65,6.25-3.61-8.67,10.08-8.63,10.15,15.93-9.36,16-9.23-15,12.54-14.95,12.67,22.09-12.93,22.17-12.8S138.05,152.76,138.2,153c0,.07,26.51-15.32,26.52-15.32s-26.3,19.1-26.16,19.35,28.94-16.88,29-16.75c.16.29-26.36,19.93-26.33,20s26.55-15.54,26.64-15.38-22.75,17.45-22.62,17.67,21.88-12.87,22-12.69-15.49,13-15.47,13.09S167,154,167.1,154.13s-7.24,8.2-7.22,8.24,7.3-4.3,7.34-4.24"/>
  <path class="cls-4" d="M170.69,137.69s6.22-3.65,6.25-3.61-8.67,10.08-8.63,10.15,15.93-9.36,16-9.23-15,12.54-14.95,12.67,22.09-12.93,22.17-12.8S168.26,152.76,168.41,153c0,.07,26.51-15.32,26.52-15.32s-26.3,19.1-26.15,19.35,28.94-16.88,29-16.75c.16.29-26.36,19.93-26.33,20S198,144.75,198.1,144.91s-22.75,17.45-22.62,17.67,21.89-12.87,22-12.69S182,162.93,182,163s15.26-8.95,15.32-8.85-7.24,8.2-7.22,8.24,7.31-4.3,7.34-4.24"/>
  <path class="cls-3" d="M200.9,137.69s6.23-3.65,6.25-3.61-8.66,10.08-8.62,10.15,15.92-9.36,16-9.23-15,12.54-15,12.67,22.1-12.93,22.17-12.8S198.47,152.76,198.62,153c0,.07,26.52-15.32,26.52-15.32s-26.3,19.1-26.15,19.35,28.94-16.88,29-16.75c.16.29-26.35,19.93-26.32,20s26.54-15.54,26.63-15.38-22.74,17.45-22.62,17.67,21.89-12.87,22-12.69-15.5,13-15.47,13.09,15.25-8.95,15.31-8.85-7.24,8.2-7.22,8.24,7.31-4.3,7.34-4.24"/>
  <path class="cls-3" d="M231.11,137.69s6.23-3.65,6.25-3.61-8.66,10.08-8.62,10.15,15.92-9.36,16-9.23-15,12.54-14.94,12.67,22.09-12.93,22.17-12.8S228.68,152.76,228.83,153c0,.07,26.52-15.32,26.52-15.32s-26.3,19.1-26.15,19.35,28.94-16.88,29-16.75c.17.29-26.35,19.93-26.32,20s26.54-15.54,26.64-15.38-22.75,17.45-22.63,17.67,21.89-12.87,22-12.69-15.5,13-15.47,13.09,15.25-8.95,15.32-8.85-7.25,8.2-7.23,8.24,7.31-4.3,7.34-4.24"/>
</svg>
