<?xml version="1.0"?>
<svg xmlns="http://www.w3.org/2000/svg" id="Layer_1" data-name="Layer 1" viewBox="0 0 302 302">
  <defs>
    <style>.cls-1{fill:#572fa3;}.cls-2{fill:#fff;}</style>
  </defs>
  <path class="cls-1" d="M131.39,175.58V258h-115V215h-.05V175.58c0-24.54,19.44-44.66,43.15-44.66H88.25C112,130.92,131.39,151,131.39,175.58Z"/>
  <path class="cls-1" d="M268.85,106.9H155.78a5.94,5.94,0,0,0-6.28,6.28v87.94a5.94,5.94,0,0,0,6.28,6.28h21.36l-13.82,32.67c-2.51,6.28,0,13.81,6.28,16.33,7.54,3.77,15.08-1.26,16.34-6.28l18.84-42.72h16.33L240,250.12c2.51,5,8.79,10.05,16.33,6.28,6.28-2.52,8.79-10,6.28-16.33L248.75,207.4h21.36a5.93,5.93,0,0,0,6.28-6.28V113.18C275.13,109.41,272.62,106.9,268.85,106.9Zm-11.78,76.78a4.46,4.46,0,0,1-3.18,1.32h-79a4.5,4.5,0,0,1,0-9h79a4.5,4.5,0,0,1,3.18,7.68Zm0-22a4.46,4.46,0,0,1-3.18,1.32h-79a4.5,4.5,0,0,1,0-9h79a4.5,4.5,0,0,1,3.18,7.68Z"/>
  <circle class="cls-1" cx="74.13" cy="81.77" r="37.69"/>
  <rect class="cls-2" x="170.39" y="131" width="88" height="9" rx="4.5"/>
</svg>
