<?xml version="1.0"?>
<svg xmlns="http://www.w3.org/2000/svg" id="Layer_1" data-name="Layer 1" viewBox="0 0 302 302">
  <defs>
    <style>.cls-1{fill:#572fa3;}</style>
  </defs>
  <circle class="cls-1" cx="89.79" cy="180.75" r="21.25"/>
  <path class="cls-1" d="M88.28,208.35c-21.39,0-38.75,19-39.17,42.65h78.33C127,227.37,109.66,208.35,88.28,208.35Z"/>
  <path class="cls-1" d="M282.9,224.36v11.82A11.8,11.8,0,0,1,271.08,248H133.39a62.47,62.47,0,0,0-.59-8,18.23,18.23,0,0,0,.39-3.78V224.36Z"/>
  <path class="cls-1" d="M99.68,35.27V157.64a24.74,24.74,0,0,1,0,47.21v.28a38.8,38.8,0,0,1,23.63,16.19v-.9a3.91,3.91,0,0,1,3.94-3.94H249.38V35.27ZM221.8,192.85H127.25a3.94,3.94,0,1,1,0-7.88H221.8a3.94,3.94,0,0,1,0,7.88Zm0-31.52H127.25a3.94,3.94,0,1,1,0-7.88H221.8a3.94,3.94,0,0,1,0,7.88Zm0-31.52H127.25a3.94,3.94,0,1,1,0-7.87H221.8a3.94,3.94,0,1,1,0,7.87Zm0-31.51H127.25a3.94,3.94,0,0,1,0-7.88H221.8a3.94,3.94,0,0,1,0,7.88Zm0-31.52H127.25a3.94,3.94,0,1,1,0-7.88H221.8a3.94,3.94,0,0,1,0,7.88Z"/>
</svg>
