<?xml version="1.0" encoding="utf-8"?>
<!-- Generator: Adobe Illustrator 19.0.0, SVG Export Plug-In . SVG Version: 6.00 Build 0)  -->
<svg version="1.1" id="Layer_1" xmlns="http://www.w3.org/2000/svg" xmlns:xlink="http://www.w3.org/1999/xlink" x="0px" y="0px"
	 viewBox="0 0 162 146.9" style="enable-background:new 0 0 162 146.9;" xml:space="preserve">
<style type="text/css">
	.st0{fill:#F4F6FF;}
</style>
<g id="XMLID_1149_">
	<path id="XMLID_1016_" class="st0" d="M64,111.5c35.4,0,54.7-29.3,54.7-54.7c0-0.8,0-1.7-0.1-2.5c3.8-2.7,7-6.1,9.6-10
		c-3.4,1.5-7.2,2.6-11,3c4-2.4,7-6.1,8.5-10.6c-3.7,2.2-7.8,3.8-12.2,4.7c-3.5-3.7-8.5-6.1-14-6.1c-10.6,0-19.2,8.6-19.2,19.2
		c0,1.5,0.2,3,0.5,4.4c-16-0.8-30.1-8.5-39.6-20.1c-1.7,2.8-2.6,6.1-2.6,9.7c0,6.7,3.4,12.6,8.6,16c-3.2-0.1-6.1-1-8.7-2.4
		c0,0.1,0,0.2,0,0.2c0,9.3,6.6,17.1,15.4,18.8c-1.6,0.4-3.3,0.7-5.1,0.7c-1.2,0-2.4-0.1-3.6-0.3c2.4,7.6,9.5,13.2,18,13.4
		c-6.6,5.2-14.9,8.2-23.9,8.2c-1.5,0-3.1-0.1-4.6-0.3C43.1,108.4,53.2,111.5,64,111.5"/>
</g>
</svg>
