<?xml version="1.0"?>
<svg xmlns="http://www.w3.org/2000/svg" id="Layer_1" data-name="Layer 1" viewBox="0 0 302 302">
  <defs>
    <style>.cls-1,.cls-2,.cls-3,.cls-4{fill:none;stroke-linecap:round;stroke-linejoin:round;stroke-width:3px;}.cls-1{stroke:#572fa3;}.cls-2{stroke:#b8b9f1;}.cls-3{stroke:#fa4675;}.cls-4{stroke:#6556c5;}</style>
  </defs>
  <path class="cls-1" d="M98.75,44.18s11.13-6.53,11.17-6.45S92.91,51.9,93,52.08s24.47-14.33,24.55-14.18-25,19-24.92,19.19c0,0,30.82-18.22,31-17.9C123.7,39.28,92,62,92.13,62.28c0,0,35.66-20.62,35.68-20.59S92,67.32,92.1,67.42,132.45,43.61,132.67,44c0,0-38.09,26.52-38,26.66s40.55-23.72,40.69-23.48c0,0-40.28,27.28-40.06,27.67S135.76,51.05,136,51.38c.08.15-37.52,26.06-37.45,26.18.18.3,39.13-22.65,39.15-22.61s-36.39,24.84-36.17,25.21c0,.08,37.77-22.07,37.88-21.87s-33.06,24-33,24.09c.14.25,33-19.26,33.12-19.13s-28.17,20.93-28.1,21.06,25.91-15.26,26-15S118.61,84,118.7,84.18s15.42-9.06,15.49-9"/>
  <path class="cls-2" d="M137.16,176.2s17.18-10.11,17.27-10"/>
  <path class="cls-2" d="M86,92.58s2.19-1.27,2.19-1.27,1,4,1,4,7.65-4.45,7.66-4.42-4.76,7-4.75,7,12.71-7.45,12.75-7.37-9.25,9.76-9.22,9.82,16.93-9.8,16.94-9.78-14,13.07-14,13.11,22.1-13,22.18-12.81S99.25,108,99.3,108.13s29.15-17.21,29.31-16.93c.06.11-27.43,20.72-27.33,20.89s37.21-21.87,37.38-21.58-36.9,25.16-36.79,25.34,41.77-24.15,41.79-24.13-43.37,28.65-43.18,29c.1.17,47.51-27.64,47.6-27.48S98.77,126.13,98.86,126.3s52.78-30.51,52.8-30.48S98,131.13,98,131.29s55.25-32.11,55.34-31.95c.3.52-50.79,33.6-50.5,34.1.05.09,51.91-30.06,51.94-30s-47.38,31.74-47.18,32.08,46.61-27.29,46.77-27S108.46,139,108.56,139.15s46.62-26.94,46.63-26.92c.16.28-45,29.6-44.74,30,0,0,43.76-25.52,43.87-25.33s-41.81,27.92-41.58,28.33,41.59-24.2,41.67-24.06S112,149.39,112.14,149.68s42.81-25.24,43-24.85-43.12,29.1-43,29.31,42.73-25.23,43-24.81c.05.09-42.88,29.06-42.65,29.46.12.19,42.25-24.63,42.35-24.45s-42.2,29.25-42.12,29.4c.24.41,41.58-24.47,41.78-24.12s-42.31,28.68-42.1,29,41.5-24.23,41.62-24-40.65,27.7-40.61,27.78c.17.28,40.71-23.59,40.75-23.53s-42.22,28.43-42,28.77,42.35-24.58,42.41-24.48c.19.34-41.89,28.64-41.7,28.95,0,0,41-24.06,41.17-23.76s-40.76,27.77-40.55,28.14,41.44-24,41.47-23.94S113,192,113,192s23.75-13.85,23.81-13.75-26.14,19.84-26,20,24.74-14.4,24.79-14.31-36,25.62-35.89,25.78S135.48,189,135.49,189c.21.36-37.48,26.21-37.47,26.23s38.13-22.22,38.22-22.06-36.92,25.53-36.79,25.75,36.55-21.35,36.66-21.16S99.37,223.5,99.48,223.7s36.06-21.3,36.27-20.94S99.4,228.17,99.59,228.49s35.51-20.85,35.66-20.59c0,0-36.89,25.53-36.68,25.89.06.12,37.11-21.43,37.12-21.42S99.21,238,99.27,238.1s37-21.58,37.08-21.4c0,0-37.71,25.57-37.53,25.87.08.14,37.77-21.93,37.82-21.84S99,246.8,99,246.82s37.16-21.8,37.31-21.54-37.6,26.17-37.53,26.29c.2.35,38-22,38-21.94.16.27-37.72,25.72-37.6,25.93S136.47,234,136.48,234s-38.32,25.82-38.1,26.21c.07.13,36.7-21.66,36.9-21.31s-36.2,25.57-36.18,25.61,37.16-21.77,37.29-21.53c0,0-33.49,24-33.41,24.14s32.32-19,32.48-18.75c0,0-25,18.62-24.92,18.79s25.76-15,25.79-14.89-17.64,15.1-17.59,15.19,16.69-9.69,16.71-9.65-9.1,9.36-9,9.44l6.38-3.69"/>
  <path class="cls-3" d="M92.39,200.54s10.91-6.33,10.93-6.31"/>
  <path class="cls-3" d="M50.24,141.86S56.86,138,56.88,138s-10,10.74-9.91,10.81,19.11-11.15,19.17-11.06-18.51,15.39-18.49,15.41,26.79-15.79,26.92-15.55c.05.08-28.24,20.9-28.16,21s34.78-20.41,34.92-20.16-33.75,24.11-33.7,24.2,42.88-24.87,42.93-24.79-43.32,29.8-43.25,29.94,49.37-29,49.61-28.64c0,0-50.46,33.59-50.29,33.89s55.37-32,55.38-32c.14.24-55.34,36.51-55.32,36.55.11.19,56.92-33.5,57.2-33s-56.45,37.51-56.42,37.56S104.75,148.66,105,149c.09.16-57.3,36.9-57,37.34S105.55,152.8,105.67,153s-59,37.76-58.74,38.28,57.1-33.23,57.22-33-55.42,36.22-55.33,36.38,56.07-32.82,56.27-32.48c0,.08-53.81,35.18-53.7,35.37s53.55-31.56,53.83-31.08c.08.15-49.28,32.88-49.15,33.11,0,0,49.36-28.84,49.5-28.58s-44.9,30.44-44.85,30.55,44.14-25.92,44.33-25.59c0,.08-44.67,29.76-44.54,30s44.33-25.77,44.4-25.64c.26.46-44.89,30.49-44.65,30.91.06.09,43.91-25.74,44.08-25.45S61.14,215,61.26,215.17c0,0,43-25.37,43.26-25s-42.79,29.14-42.71,29.28,29.91-17.5,30-17.33S60.32,225,60.48,225.25c.05.09,29.92-17.37,30-17.3s-30,21.58-29.86,21.79,31.32-18.17,31.36-18.1S61.1,233.56,61.19,233.73s30.16-17.73,30.3-17.5c0,0-30.14,21.38-30,21.53s30-17.47,30-17.34-30.39,21.43-30.22,21.72,30.37-17.75,30.46-17.59S61.77,245.93,61.83,246s28.67-16.89,28.82-16.64c0,.07-30.19,21.53-30.11,21.67s29.81-17.53,29.95-17.29-29.17,21.44-29,21.68,29.2-16.93,29.23-16.87c.15.25-29,21.36-28.82,21.63s28.92-17.07,29.08-16.79c0,0-28.1,20.86-28,21.09s27.21-16,27.32-15.77-24.08,17.8-24,18,24.76-14.36,24.79-14.32-18.1,15-18.09,15c.09.16,18.29-10.57,18.29-10.56s-10,10.64-9.94,10.73,9.47-5.55,9.5-5.49"/>
  <path class="cls-1" d="M62.71,104.61S73,98.63,73,98.67s-12.85,11.79-12.82,11.85S79.39,99.2,79.49,99.36s-20.15,16.7-20.11,16.77,25.1-14.56,25.13-14.51-25.78,19.66-25.73,19.75,29.5-17.3,29.61-17.1c0,0-27.43,20.6-27.33,20.79S90.24,108,90.33,108.16,63.7,128.54,63.72,128.58s28.47-16.65,28.57-16.5S68,130.7,68.12,130.89c0,0,25.79-15.21,25.93-15,0,0-21.59,17-21.55,17.1s20.16-11.79,20.23-11.67-13.44,11.72-13.37,11.85,10.13-5.86,10.14-5.85"/>
  <path class="cls-4" d="M247,164.21c.12.22,22.26-12.88,22.27-12.86s-20,16.21-19.9,16.4,24.64-14.46,24.74-14.28-24.42,19.11-24.4,19.14,25.56-15.06,25.69-14.84-23.64,18.2-23.58,18.31,23.43-13.73,23.52-13.58-23,17.31-22.94,17.43,22.74-13.19,22.76-13.14"/>
  <path class="cls-4" d="M244.75,183.84l1.73-1S242.2,190,242.2,190c.11.19,33.55-19.44,33.58-19.38s-34.66,24.81-34.59,24.93S274.87,175.8,275,176c0,.05-36.09,24.88-35.91,25.19s36.13-20.89,36.15-20.87c.17.29-38.8,26.63-38.66,26.87s37.87-22.06,37.95-21.91"/>
  <path class="cls-4" d="M218.51,207.74l.07-.05s-2.71,6-2.71,6,8.78-5.14,8.81-5.09-11.08,11.18-11,11.26,14.8-8.61,14.83-8.56-16.11,13.48-16.09,13.52c.22.38,62.53-36.51,62.7-36.2s-65.57,42.16-65.31,42.61,65.59-38.37,65.8-38"/>
  <path class="cls-4" d="M215.44,196.42c0,.07,19.21-11.24,19.28-11.13s-13.69,12-13.66,12.07,10.7-6.19,10.71-6.19-6.89,8.69-6.85,8.76,6-3.49,6-3.49"/>
  <path class="cls-4" d="M174.24,153.82c.06.11,20.73-12.18,20.82-12s-22.7,18.06-22.64,18.16,39.65-23.14,39.76-23c0,0-39.06,26.73-38.82,27.13s49-28.73,49.17-28.38-48.77,33.07-48.76,33.08c.29.5,56.18-32.67,56.28-32.49S173.17,173,173.46,173.47s63.7-37.56,64-37-64.95,41.88-64.67,42.36c.19.33,70.13-40.64,70.19-40.53s-70.8,45.56-70.62,45.86,76.18-44.65,76.47-44.15c.39.68-76.33,48.17-76.24,48.31.3.53,81.24-47.07,81.31-46.94.17.28-81,51-80.82,51.28.46.8,84.55-49.74,84.95-49,0,0-85.87,54.25-85.85,54.29.44.77,90.12-53.05,90.56-52.28s-90.84,56.12-90.44,56.82c0,.06,94.23-55,94.48-54.54.47.82-94.09,57.65-93.59,58.52.23.4,64.38-37.59,64.56-37.28s-64.17,41.81-64.07,42c.29.5,58-33.52,58-33.5.22.39-56.87,37.48-56.83,37.55.33.57,61.73-35.73,61.77-35.66s-61.83,40-61.63,40.35c0,0,35.84-20.88,35.92-20.74s-34.07,23.65-34,23.72,32.92-19.07,33-19c.15.26-31.77,22.35-31.66,22.53S206.75,210,206.75,210c.12.19-27.9,20.38-27.75,20.63,0,0,26.77-15.7,26.87-15.52,0,0-24.62,19.08-24.57,19.17s22.28-12.89,22.29-12.86-19.79,16.39-19.71,16.53,17-9.88,17.05-9.84-15.29,13.45-15.27,13.49,16.48-9.6,16.52-9.54-13.57,12.44-13.53,12.5,17.06-10,17.12-9.89-13.94,13.11-13.93,13.14c.2.35,82.81-48.22,83-47.91.29.51-81.19,50.56-81,50.93.45.78,81.19-47.3,81.37-47,0,0-78.41,48.48-78,49.12,0,0,78.08-45.13,78.1-45.1.44.77-75.89,48.33-75.89,48.33s74.21-43.23,74.37-42.94c.33.57-72.22,45.36-72,45.67s71.57-42.26,72-41.56c.14.24-67.93,44-67.87,44.14.16.28,65.62-38.32,65.81-38,.29.5-62.19,39.74-62,40.08.3.52,59.85-34.56,59.85-34.56.1.17-55.94,36.78-55.69,37.21s51.54-30,51.62-29.81-46,31.05-45.82,31.32,40.06-23.21,40.09-23.15c.22.38-36.67,24.91-36.49,25.24,0,0,29.15-17,29.22-16.87"/>
</svg>
