<?xml version="1.0" encoding="utf-8"?>
<!-- Generator: Adobe Illustrator 19.0.0, SVG Export Plug-In . SVG Version: 6.00 Build 0)  -->
<svg version="1.1" id="Layer_1" xmlns="http://www.w3.org/2000/svg" xmlns:xlink="http://www.w3.org/1999/xlink" x="0px" y="0px"
	 viewBox="0 0 162 146.9" style="enable-background:new 0 0 162 146.9;" xml:space="preserve">
<style type="text/css">
	.st0{fill:#F4F6FF;}
</style>
<g id="XMLID_1102_">
	<path id="XMLID_1103_" class="st0" d="M129.2,54.6c0,0-0.9-6.6-3.8-9.5c-3.7-3.8-7.8-3.9-9.6-4.1c-13.5-1-33.7-1-33.7-1h0
		c0,0-20.2,0-33.7,1c-1.9,0.2-6,0.2-9.6,4.1c-2.9,2.9-3.8,9.5-3.8,9.5s-1,7.8-1,15.6v7.3c0,7.8,1,15.6,1,15.6s0.9,6.6,3.8,9.5
		c3.7,3.8,8.5,3.7,10.6,4.1c7.7,0.7,32.7,1,32.7,1s20.2,0,33.7-1c1.9-0.2,6-0.2,9.6-4.1c2.9-2.9,3.8-9.5,3.8-9.5s1-7.8,1-15.6v-7.3
		C130.2,62.4,129.2,54.6,129.2,54.6z M72.1,86.4v-27l26,13.6L72.1,86.4z"/>
</g>
</svg>
